<?xml version="1.0" encoding="UTF-8"?>
<svg id="Layer_2" xmlns="http://www.w3.org/2000/svg" xmlns:xlink="http://www.w3.org/1999/xlink" viewBox="0 0 1089.39 557.82">
  <defs>
    <style>
      .cls-1 {
        opacity: .33;
      }

      .cls-2 {
        fill: url(#linear-gradient-2);
      }

      .cls-3 {
        fill: #fff;
      }

      .cls-4 {
        opacity: .3;
      }

      .cls-5 {
        fill: #962d17;
      }

      .cls-6 {
        opacity: .31;
      }

      .cls-7 {
        fill: url(#linear-gradient-4);
      }

      .cls-8 {
        fill: #962d17;
      }

      .cls-9 {
        fill: url(#radial-gradient);
      }

      .cls-10 {
        fill: url(#radial-gradient-3);
      }

      .cls-11 {
        fill: url(#linear-gradient-3);
      }

      .cls-12 {
        fill: url(#linear-gradient-5);
      }

      .cls-13 {
        fill: url(#linear-gradient-8);
      }

      .cls-14 {
        fill: url(#radial-gradient-2);
      }

      .cls-15 {
        fill: url(#linear-gradient-7);
      }

      .cls-16 {
        fill: url(#linear-gradient-9);
      }

      .cls-17 {
        opacity: .39;
      }

      .cls-18 {
        fill: url(#linear-gradient-6);
      }

      .cls-19 {
        fill: #f4a046;
      }

      .cls-20 {
        fill: #ddba58;
      }

      .cls-21 {
        fill: url(#linear-gradient);
      }

      .cls-22 {
        fill: #751f11;
      }
    </style>
    <radialGradient id="radial-gradient" cx="593.75" cy="392.66" fx="593.75" fy="392.66" r="384.99" gradientUnits="userSpaceOnUse">
      <stop offset="0" stop-color="#d87124"/>
      <stop offset=".4" stop-color="#d46c22"/>
      <stop offset=".81" stop-color="#cb601c"/>
      <stop offset="1" stop-color="#c65819"/>
    </radialGradient>
    <radialGradient id="radial-gradient-2" cx="542.5" cy="248.69" fx="542.5" fy="248.69" r="289.85" gradientUnits="userSpaceOnUse">
      <stop offset="0" stop-color="#f6af47"/>
      <stop offset=".21" stop-color="#f2a541"/>
      <stop offset=".54" stop-color="#e98c34"/>
      <stop offset=".83" stop-color="#df7126"/>
    </radialGradient>
    <radialGradient id="radial-gradient-3" cx="535.99" cy="72.69" fx="535.99" fy="72.69" r="306.7" xlink:href="#radial-gradient-2"/>
    <linearGradient id="linear-gradient" x1="834.97" y1="311.44" x2="834.97" y2="385" gradientTransform="translate(17.57 -73.19) rotate(5.06)" gradientUnits="userSpaceOnUse">
      <stop offset="0" stop-color="#fde132"/>
      <stop offset=".23" stop-color="#fcdc33"/>
      <stop offset=".5" stop-color="#facd37"/>
      <stop offset=".79" stop-color="#f7b53f"/>
      <stop offset="1" stop-color="#f4a046"/>
    </linearGradient>
    <linearGradient id="linear-gradient-2" x1="740.45" y1="310.6" x2="740.45" y2="384.16" gradientTransform="matrix(1,0,0,1,0,0)" xlink:href="#linear-gradient"/>
    <linearGradient id="linear-gradient-3" x1="669.41" y1="309.75" x2="669.41" y2="383.31" gradientTransform="translate(-10.74 55.42) rotate(-4.58)" xlink:href="#linear-gradient"/>
    <linearGradient id="linear-gradient-4" x1="642.45" y1="310.29" x2="642.45" y2="383.85" gradientTransform="translate(10.9 -37.74) rotate(3.45)" xlink:href="#linear-gradient"/>
    <linearGradient id="linear-gradient-5" x1="543.9" y1="310.04" x2="543.9" y2="383.7" gradientTransform="translate(-10.7 42.81) rotate(-4.36)" xlink:href="#linear-gradient"/>
    <linearGradient id="linear-gradient-6" x1="499.79" y1="311.51" x2="499.79" y2="384.16" gradientTransform="matrix(1,0,0,1,0,0)" xlink:href="#linear-gradient"/>
    <linearGradient id="linear-gradient-7" x1="439.91" y1="308.5" x2="439.91" y2="382.06" gradientTransform="translate(17.12 -37.9) rotate(5.42)" xlink:href="#linear-gradient"/>
    <linearGradient id="linear-gradient-8" x1="339.78" y1="310.6" x2="339.78" y2="384.16" gradientTransform="matrix(1,0,0,1,0,0)" xlink:href="#linear-gradient"/>
    <linearGradient id="linear-gradient-9" x1="249.44" y1="312.4" x2="249.44" y2="385.96" gradientTransform="translate(-15.51 25.98) rotate(-5.96)" xlink:href="#linear-gradient"/>
  </defs>
  <g id="Layer_1-2" data-name="Layer_1">
    <g id="Sign_Background">
      <path class="cls-8" d="M993.44,33.35s-.95,13.34-4.76,42.87c-3.81,29.54-14.29,87.65-14.29,92.42s-20.01,21.91-20.01,21.91c0,0,.53.11,1.39.34,1.78.47,4.98,1.42,7.88,2.85.04.02.08.04.11.07.42.22.84.45,1.23.66.11.06.22.11.31.17.83.5,1.6,1.05,2.26,1.62l.04.04c.95.85,1.68,1.79,2.02,2.83,1.91,5.72-4.76,68.6-4.76,71.46s-4.76,6.67-7.62,7.62c-1.96.66,1.02.86,3.39,3.09,1.03.97,1.94,2.33,2.28,4.29,0,.05.02.1.03.14,0,.03,0,.07.02.1.95,6.67-.57,55.54-1.24,57.3-.67,1.77-14.96,13.21-14.96,13.21,0,0,3.23.53,6.88,2.09,2.79,1.17,5.84,2.94,7.89,5.51,1.44,1.81,2.38,4.02,2.38,6.7v89.56s-1.91,71.46-2.86,78.13-8.57,18.1-16.2,17.15-222.95-12.39-222.95-12.39c0,0-225.81-6.67-328.7.95s-198.17,13.34-198.17,13.34c0,0-18.1,2.86-18.1-5.72s-14.29-110.52-14.29-110.52c0,0-1.91-7.62.95-11.43s7.62-11.43,7.62-11.43c0,0-6.67.95-8.57-1.91s-6.67-40.02-6.67-40.97l5.72-5.72s-2.86-.95-3.81-3.81-11.43-52.4-9.53-54.31,4.76-5.72,4.76-5.72c0,0-2.86-.95-3.81-2.86s-2.86-15.24,0-18.1l-3.81.95s-2.86-1.91-4.76-18.1-7.62-40.97-6.67-43.83,8.57-10.48,8.57-10.48c0,0-7.83-2.14-8.68-4.89-.85-2.73-7.52-44.66-8.47-50.37-.95-5.71,2.85-11.42,8.56-15.23-.43.1-7,1.68-8.7-1.5-1.76-3.28-3.67-16.62,1.1-20.43,0,0,.95-1.91-.95-1.91s-4.76,0-6.67-4.76-10.48-54.31-11.43-65.74,9.53-16.2,13.34-18.1c1.49-.74,2.39-1.34,6.65-2.18,6.68-1.33,21.63-3.27,60.04-7.35C250.29,14.29,431.31,0,548.5,0s387.78,16.2,432.55,24.77c.64.12,1.24.28,1.82.44,8.08,2.32,10.57,8.14,10.57,8.14Z"/>
      <path class="cls-9" d="M949.61,524.97s-1.91,8.57-15.24,7.62c-13.34-.95-224.58-32.01-364.78-29.35-140.19,2.67-372.66,24.58-372.66,24.58l-8.57-38.11s14.29-5.72,33.35-3.81,2.86-1.91-.95-2.86-33.35-1.91-33.35-1.91c0,0-5.72-16.2-6.67-50.5,0-1.91,77.17-24.77,77.17-24.77,0,0-65.74,9.53-77.17,12.39,0,0-2.86-5.72-1.91-10.48s40.97-15.24,40.97-15.24l-42.87,1.91-3.27-28.62c10.88-.74,182.22-12.47,263.37-16.16,128.62-5.72,247.72-4.76,388.73,4.76,1,.08,1.99.15,2.99.23,1.99.16,3.98.32,5.96.5,1.09.1,2.17.2,3.25.3,59.27,5.47,113.31,17.67,113.31,17.67-.71,9.05-.71,27.04-.71,27.04l-54.75,2.83h-.07l-.24.02h-.21s.14.03.14.03l19.63,3.05c.07,0,.1.02.1.02l35.39,5.49v21.91s-11.43,5.72-32.39,3.81c-20.12-1.83-44.64-4.54-46.56-4.74,3.5.6,78.05,13.34,79.91,14.27,1.91.95-1.91,78.13-1.91,78.13Z"/>
      <path class="cls-19" d="M173.64,365.82s.02.04.02.04c0,0-.34,0-.02-.04Z"/>
      <path class="cls-19" d="M961.52,363.93c-.99-.04-3.35,0-5.54.9h0c-2.07,1.24-3.45,3.29-4.31,4.96-.07.27-.11.54-.15.84-.09.71-.17,1.55-.25,2.49h0s-54.04-12.2-113.31-17.66c-1.08-.1-2.16-.2-3.25-.3-1.98-.17-3.97-.33-5.96-.5-1-.08-1.99-.15-2.99-.23-141.01-9.53-260.1-10.48-388.73-4.76-81.16,3.69-252.49,15.42-263.37,16.16h-.02c-.07-.26-.6-1.94-1.48-2.82-1.85-.92-7.3,4.44-7.61,4.75,4.75-6.66,7.61-5.71,7.61-5.71,0,0,.36-.03,1.06-.08,7.48-.54,53.82-3.89,114.97-7.66,2.32-.14,4.67-.29,7.02-.43.97-.06,1.92-.11,2.84-.17.38-.02.76-.05,1.14-.07.43-.03.85-.05,1.26-.08,2.07-.12,4.01-.23,5.79-.34.71-.04,1.41-.08,2.07-.12.45-.02.88-.05,1.3-.08.42-.03.83-.05,1.23-.08.27,0,.52-.03.77-.05.51-.03.99-.06,1.46-.09.55-.03,1.08-.07,1.56-.1.4-.02.77-.05,1.11-.07.12,0,.26-.02.39-.03.17,0,.34-.02.5-.03.17,0,.33-.02.5-.03.28-.03.54-.04.8-.05.31-.02.71-.05,1.17-.07,64.75-3.83,140.19-7.71,202.87-9.33,142.1-3.67,274.24,4.63,274.24,4.63,100.67,2.97,141.46,7.24,157.42,10.66,2.79,1.17,5.84,2.94,7.89,5.51Z"/>
      <path class="cls-19" d="M950.57,411.59v4.53l-.48-.24c-10.53-3.43-55.12-12.36-54.65-12.84s19.74,3.07,19.74,3.07l35.39,5.49Z"/>
      <path class="cls-5" d="M914.7,174.85l-5.88,15.23s-.06,0-.18,0c-.2,0-.57-.03-1.13-.05-.03,0-.06,0-.08,0-3.32-.12-12.87-.46-32.18-.9-1.64.06-3.08.1-3.95.12-2.07-.05-4.13-.09-6.19-.1-4.71-.02-9.43-.27-14.17-.52-4.03-.08-8.31-.15-12.85-.23-2.71-.05-5.67-.1-8.86-.15-60.4-.99-203.95-2.91-273.18-.96-67.66,1.91-161.32,7.81-192.76,9.56-.58.03-1.13.07-1.68.1h0c-.97.05-1.88.1-2.71.14-.06,0-.12,0-.18,0-.56.03-1.08.06-1.56.08-.18,0-.36.02-.56.03-.03,0-.06,0-.1,0-3.68.17-9.86.39-17.72.63-45.12,1.41-145.53,3.78-145.53,3.78,0,0-25.55-.62-33.13,0-5.92.49-7.97,1.8-8.36,3.9-2.4.61-4.72,1.51-7.16,1.99-2.3.45-3.25-2.84-.97-3.53,3.56-1.09,6.44-2.63,10.19-3.33,3.73-.7,7.31-.57,11.06-.71,7.96-.28,15.8,0,23.74-.06,1.53,0,3.08-.02,4.61-.02v-6.58s192.61-7.67,205.28-8.6c12.68-.93,65.44-5.78,167.59-7.83,102.15-2.05,260.6,1.68,277.93,2.05,14.98.32,56.8-2.92,67.91-3.81.24-.02.46-.04.66-.06.15-.02.3-.03.43-.04s.26-.02.37-.03c.15,0,.3-.03.43-.04.56-.04.86-.07.86-.07Z"/>
      <path class="cls-14" d="M960.63,281.29c1.03.97,1.94,2.33,2.28,4.29-.06,0-.11-.02-.17-.04-1.22-1.11-3.55-2.92-5.82-3.13-2.9-.28-5.77.03-6.86,2.04-.15.28-.27.59-.34.94-.63,2.86-1.69,45.98-1.74,52.25-.07,6.28-3.17,8.06-7.52,8.48-4.35.41-112.85-.77-120.58-.68-7.74.1-128.62-6.99-228.16-5.13-99.54,1.87-238.98,4.1-300.5,8.95-61.51,4.85-107,2.58-107,2.58,0,0-6.09.62-8.82-4.85-2.73-5.47-5.59-14.66-6.58-25.11-1-10.43-5.96-44.73-5.96-44.73,0,0-.06-.89.56-2.06.55-1.04,1.65-2.3,3.8-3.36,3.08-1.02,6.32-1.64,9.33-2.17,3.11-.54,6.22-1.14,9.33-1.71,7.35-.91,15.6-1.51,22.33-1.51,10.01,0,19.56.61,24,.48,1.57-.05,2.51-.19,2.6-.48.37-1.12-48.96-6.34-65-6.09-6.21-.38-8.33-1.87-9.32-5.47-1-3.61-8.2-44.12-8.7-47.35-.11-.71-.13-1.35-.03-1.94.38-2.1,2.44-3.41,8.36-3.9,7.57-.62,33.13,0,33.13,0,0,0,100.4-2.37,145.53-3.78,7.86-.24,14.04-.46,17.72-.63.04,0,.07,0,.1,0,.2,0,.38-.02.56-.03.49-.02,1-.05,1.56-.08.06,0,.12,0,.18,0,.83-.05,1.73-.1,2.71-.14h0c.54-.03,1.1-.07,1.68-.1,31.44-1.74,125.11-7.65,192.76-9.56,69.23-1.94,212.78-.03,273.18.96,3.19.06,6.15.1,8.86.15,4.54.08,8.82.15,12.85.23,4.74.26,9.46.5,14.17.52,2.07,0,4.13.05,6.19.1.88-.03,2.32-.07,3.95-.12,19.31.44,28.87.77,32.18.9.02,0,.05,0,.08,0,.18.02.36.03.55.04.19,0,.38,0,.58,0,.12,0,.18,0,.18,0,11.03,0,36.94-.12,46.95.82,1.95.18,3.31.4,3.82.68,1.19.63,2.67,1.42,4.06,2.17.04.02.08.04.11.07.42.22.84.45,1.23.66.11.06.22.11.31.17.15.09.3.17.45.26.17.1.31.19.46.29.11.07.22.14.31.21.36.26.63.49.81.65.06.05.1.1.14.13.09.08.12.12.12.12,0,0-3.51,1.69-6,3.33-2.87,1.88-5.71,4.29-6.12,6.67-.87,5.04-1.68,22.31-1.68,22.31,0,0-35.36-3.3-55.49-3.3-2.19-.02-1.94.19-.45.51.83.17,2.02.37,3.41.59h0c2.11.33,4.64.7,6.94,1.01.02,0,.04,0,.06,0,2.02.28,3.84.51,5.01.68,4.97.68,40.07,6.76,40.26,7.33,0,.03.02.07.02.1,0,.7-1.29,2.75-1.57,4.87-.31,2.24-1.62,21.68-1.31,24.3.31,2.61,0,3.54-2.49,4.04-2.49.5-49.52,6.96-52.69,7.39-2.95.41-4.34.97.1,1.14.32.02.69.03,1.09.04.05,0,.1,0,.15,0,.57,0,1.43.03,2.52.07,10.97.32,45.68,1.52,50.94,1.97,3.9.33,7.56.52,10.3,1.92Z"/>
      <path class="cls-10" d="M982.88,25.21c0,1.12-.06,2.45-.21,4,0,.11-.02.22-.03.33-1.02,10.15-3.48,23.52-3.48,23.52,0,0-.1,4.75-6.06,4.47-5.96-.28-14.36-.55-14.36-.55,0,0-1.76.45,0,1.01.4.12,1.41.31,2.74.55,4.55.79,12.96,2.04,14.37,2.61.89.37,1.36.94,1.37,2.59,0,1.7-.48,4.54-1.51,9.51-2.05,9.79-2.24,19.21-6.9,20.32-4.66,1.11-30.95.84-32.16,1.03-1.21.18-1.5.55,1.03,1.02,2.52.47,24.32,2.14,27.31,2.33.97.06,1.94.22,2.78.52,0,0,.02,0,.02,0,1.51.53,2.63,1.52,2.6,3.22,0,.25-.03.52-.09.81-.66,3.27-2.33,11.38-2.33,11.38,0,0-40.26,2.14-46.42,2.23-1.27.02-1.95.09-2.22.18h0s0,0-.02,0c-.94.34,4.34,1.08,7.94,1.22.32,0,.76.04,1.31.06h.03c2.74.13,7.99.43,13.68.79h0c8.9.56,18.84,1.31,21.79,1.95,5.22,1.11,4.48,4.19,4.48,4.19,0,0-.06.22-.17.63-1.42,5.21-11.3,41.34-12.57,43.3-1.19,1.83-27.2,5.06-41.96,6.46-.13,0-.28.03-.43.04-.11,0-.24.02-.37.03s-.28.02-.43.04c-.2.02-.42.04-.66.06-11.11.89-52.94,4.13-67.91,3.81-17.33-.37-175.78-4.1-277.93-2.05-102.16,2.05-154.91,6.9-167.59,7.83-12.67.93-205.28,8.6-205.28,8.6,0,0-30.65.62-33.88.5s-8.08.88-9.32-6.83c-1.06-6.55-6.51-37.57-7.52-47.68-.18-1.79-.22-2.92-.07-3.15.1-.16,1-.38,2.53-.65.05,0,.1-.02.15-.03,1.62-.29,3.91-.62,6.67-.99.05,0,.09,0,.13-.02,13.08-1.75,36.71-4.29,51.54-5.91.03,0,.06,0,.09,0,7.57-.83,12.83-1.42,13.2-1.53,1.37-.43-1.61-.74-1.61-.74h-72.79s-1.8-4.23-1.31-7.7c.24-1.71,1.04-3.24,2.89-3.98,3.91-1.56,38.75-9.38,59.45-13.97.03,0,.06,0,.08-.02,8.94-1.97,15.23-3.34,15.23-3.34,0,0-78.01,5.06-81.25,2.57-3.23-2.49-11.59-64.68-12.08-66.05-.41-1.12-.52-3.94,1.99-5.44,6.68-1.33,21.63-3.27,60.04-7.35C250.29,14.29,431.31,0,548.5,0c85.86,0,254.07,8.7,355.48,16.71,37.01,2.93,65.11,5.76,77.08,8.06.64.12,1.24.28,1.82.44Z"/>
    </g>
    <g>
      <g class="cls-1">
        <path class="cls-5" d="M360.83,355.59c-2.49,1.12-5.83.8-8.47.84-3.34.05-6.65.82-9.92,1.5-5.94,1.24-12.01,2.54-17.99,3.47-12.47,1.93-25.11,3.81-37.43,6.43-6.71,1.42-13.35,3.1-19.98,4.8s-12.87,4.32-19.4,5.76c-10.73,2.35-21.73,3.46-32.44,5.88-2.98.67-6,1.52-8.85,2.61s-5.8,3.13-8.84,4.02c-5.33,1.57-10.66,2.25-16.13,3.2-1.37.24-.81,2.44.58,2.11,2.07-.5,5.38-1.66,7.51-1.38s3.54,1.06,5.93.93c5.63-.31,10.16-3.55,15.43-5.26,11.09-3.59,23.04-4.33,34.42-6.79,12.81-2.76,25.29-7.28,38.11-10.3,6.62-1.56,13.24-2.27,19.89-3.57s12.93-2.79,19.52-3.82,13.04-3.93,19.58-5.65c4.16-1.1,8.22-2.07,12.46-2.64,2.24-.3,4.15-.82,6.09-2.05.06-.04,0-.11-.05-.09h0Z"/>
      </g>
      <g class="cls-1">
        <path class="cls-5" d="M312.37,409.78c-2.13,1.09-5.41,1.23-7.68,1.76-4.34,1.02-8.68,1.9-13.04,2.81-7.85,1.64-15.59,3.56-23.55,4.59-12.67,1.63-24.45,3.98-35.55,10.64-4.08,2.45-10.15,5.6-11.91,10.32s4.24,7.97,8.03,9.2c5.71,1.86,11.39,1.24,17.3.96,7.17-.33,14.31-1.02,21.47-1.46,8.92-.54,17.78-.78,26.69-1.67,4.2-.42,8.34-.67,12.53-1.3,2.82-.42,6.67-.79,8.9-2.82,1.27-1.17-.07-3.21-1.63-2.81-5.74,1.48-12.42,2.08-18.4,2.45-6.75.41-13.48,1.48-20.24,1.8-12.33.57-24.72,2.33-37.04,2.39-4.73.02-18.6-1.99-11.69-8.88,3.1-3.09,7.41-5.59,11.23-7.73,10.7-6,23.24-7.23,35.12-9.26,7.3-1.25,14.42-3.42,21.54-5.45,3.8-1.08,7.5-2.46,11.29-3.56,2.04-.59,4.81-.83,6.67-1.92.04-.03,0-.09-.04-.07h0Z"/>
      </g>
      <g class="cls-1">
        <path class="cls-5" d="M278.29,406.14c-2.65.77-5.87.24-8.64.68-3.12.49-6.19,1.33-9.29,1.93-7.25,1.4-14.06,2.91-21.41,3.55-4.69.41-9.41,1.48-13.8,3.1-6.41,2.36-12.91,4.62-19.25,7.16-10.96,4.39-26.61,9.76-32.72,20.74-6.58,11.83,8.58,19.84,18.13,22.39,7.28,1.95,14.94,3.69,22.41,4.78,8.62,1.25,17.78.39,26.27-1.42,1.56-.33,1.57-2.83,0-3.16-8.97-1.91-18.09-2.92-27.08-4.83-6.94-1.47-14.25-2.74-21.01-4.88-2.63-.83-5.55-2.02-7.75-3.66-1.13-.85-2.97-2.2-3.58-3.53-.58-1.25-.35-1.72.54-3.46,3.35-6.59,11.02-11.51,17.09-15.22,6.44-3.95,13.63-6.24,20.47-9.34,6.01-2.73,11.3-5.19,17.87-6.14,3.22-.46,6.46-.38,9.68-.86,3.7-.55,7.31-1.67,10.96-2.49,3.89-.88,7.79-1.8,11.69-2.61,3.06-.64,6.79-.91,9.56-2.37.2-.1.06-.42-.15-.36h0Z"/>
      </g>
      <g class="cls-1">
        <path class="cls-5" d="M287.28,389.64c-7.55,1.31-15.35,1.83-22.81,3.64-3.66.89-7.28,2.03-10.82,3.3-3.15,1.12-7.09,2.3-9.55,4.59-.38.35-.13.88.28,1.04,2.96,1.2,6.57-1.13,9.36-2.03,3.87-1.25,7.75-2.46,11.65-3.6,4.1-1.19,8.29-1.7,12.44-2.65,3.62-.83,6.12-2.85,9.48-4.23.05-.02.03-.08-.02-.08h0Z"/>
      </g>
      <g class="cls-1">
        <path class="cls-5" d="M261.72,481.78c-14.72-2.06-29.52-3.55-44.29-5.02-6.44-.64-12.84-1.76-19.18-3.01-4.06-.8-7.95-2.05-11.92-3.21s-8.09-3.5-11.92-4.02c-1.25-.17-2.58.74-2.16,2.16,1.04,3.51,5.13,4.32,8.32,5.31,4.08,1.27,8.35,2.4,12.51,3.39,6.82,1.62,14.22,2.26,21.21,2.67,7.72.45,15.42.65,23.11,1.44,8.28.85,16.01,1.67,24.3.51.11-.02.11-.21,0-.23h0Z"/>
      </g>
      <g class="cls-1">
        <path class="cls-5" d="M344.45,490.79c-6.3-.69-12.44-2.73-18.79-2.7-7.03.03-14,.81-21.01,1.31-14.43,1.02-28.92-.19-43.37.84-6.72.48-13.39,1.46-20.12,1.81-6.33.34-12.65.26-18.97.91-7.32.76-14.67,1.77-22.02,2.04-3.07.11-6.18.47-9.25.72-3.33.28-6.95.86-10.27.89-1.65.02-2.31,2.29-.85,3.13,4.66,2.66,8.53,2.2,13.68,1.85,5.56-.37,11.1-.99,16.67-1.34,10.46-.65,20.94-1.98,31.38-2.71,11.16-.78,22.24-3.09,33.46-3.31s21.86-.69,32.8-1.91c6.42-.72,12.78-1.8,19.23-2.05,5.68-.21,11.73.31,17.43.61.07,0,.06-.09,0-.1h0Z"/>
      </g>
      <g class="cls-1">
        <path class="cls-5" d="M371.3,500.73c-11.95-1.21-23.95-5.09-36.04-4.15s-24.05,1.24-35.91,3.06-22.72,2.73-34.05,4.22c-6.51.85-13.09.84-19.61,1.5s-13.51,1.61-20.25,1.83c-8.19.27-16.54,1.22-24.73.29-5.46-.62-12.07-2.48-17.44-1.04-2.01.54-2.3,3.3-.57,4.36,4.28,2.61,9.96,1.74,14.88,2.29,7.11.79,14,.43,21.11.06,13.54-.71,27.17-2.2,40.64-3.89,11.31-1.42,22.62-3.33,33.93-4.9,6.61-.92,13.09-2.32,19.74-2.94,5.9-.55,11.77-.85,17.65-1.64,6.48-.87,12.38-1.27,18.9-.53,7.3.83,14.48,1.08,21.76,1.59.06,0,.06-.09,0-.1h0Z"/>
      </g>
      <g class="cls-1">
        <path class="cls-5" d="M342.2,480.7c9.21,2.28,19.27,2.54,28.71,3.56,10.53,1.14,21.27,1.84,31.85,1.97,12.15.14,24.39.78,36.51.28,4.79-.2,9.52-.38,14.3-.88,3.49-.37,9.87-.34,11.8-3.78.74-1.32-.22-2.7-1.62-2.82-4.42-.39-9.23,1.67-13.68,2.05-4.87.42-9.79.85-14.68,1.03-11.53.43-23.04.69-34.56.95-9.75.22-19.87-.38-29.6-1.19-4.46-.37-8.9-.67-13.36-.83-5.09-.17-10.62.32-15.65-.43-.06,0-.09.08-.03.1h0Z"/>
      </g>
      <g class="cls-1">
        <path class="cls-5" d="M406.83,494.37c15.94,2.51,32.22.58,48.3,1.29,8.86.39,17.7.7,26.54.32s17.24,1.32,25.77,1.97c16.47,1.26,33.05.54,49.56,1.54,9.21.56,18.63.16,27.84-.28,3.95-.19,7.91-.19,11.85.03,3.46.2,6.46-.93,9.82-.96,10.08-.1,20.25-.45,30.31-.06,8.06.32,15.21.34,22.88-2.33,2.31-.8,1.88-4.05-.57-4.22-2.63-.18-5.32.24-7.95.36-4.03.18-8.05-.32-12.09-.51-8.42-.4-16.78-.09-25.23-.15-7.69-.05-15.2-1.4-22.89-1.32-8.73.09-17.4.52-26.13.52-8.06,0-16.22-.04-24.26-.57s-16.6-.06-24.89-.2-17.3-.44-25.98.11-16.44,1.99-24.7,2.64c-10.29.81-20.65.54-30.94,1.12-8.87.5-18.38,1.96-27.21.61-.06,0-.09.09-.03.1h0Z"/>
      </g>
      <g class="cls-1">
        <path class="cls-5" d="M484.14,480.94c5.94.77,11.97,1.35,17.95,1.76,4.55.31,9.16.93,13.72.77,9.08-.31,18.4-1.85,27.49-1.18,7.47.55,14.97,1.61,22.43,2.32,9.5.91,19.32-.19,28.87-.14,10.16.04,20.33-.08,30.46.43,9.32.47,18.78,1.28,28.07.79,8.52-.44,16.95.71,25.36,1.68,9.09,1.04,18.09,2.13,27.13,3.66,9.62,1.62,19.46,4.92,29.24,5.27,1.93.07,2.43-.38,4.06-1.01.32-.12,1.53-.83.46-.55.81-.21,2.48.19,3.31.15,5.1-.21,10.12-.61,15.22-1.01,1.97-.15,2.01-3.03,0-3.1-8.49-.27-16.95.79-25.4-.52-3.06-.48-3.69,3.88-.57,4.22,8.71.95,17.27-.48,25.97-.6v-3.1c-4.22.5-8.36.59-12.6.67-1.91.03-4.07.64-5.92.08-1.1-.33-2.02-1.25-3.21-1.62-3.74-1.17-8.49-1.17-12.37-1.94-4.42-.88-8.86-1.75-13.32-2.51-9.21-1.58-18.48-3.21-27.82-3.69-7.63-.39-15.1-1.76-22.78-1.71-19.12.12-38.2-.85-57.36-.78-10.45.04-20.85.24-31.26.66-7.38.3-15.26-.88-22.6-1.71-9.91-1.12-19.49.09-29.4.73-4.74.31-9.45-.13-14.18.04-6.97.24-14.02.95-20.94,1.85-.05,0-.05.07,0,.08h0Z"/>
      </g>
      <g class="cls-1">
        <path class="cls-5" d="M778.3,492.33v.21c-.02.08.05.14.11.17,4.9,1.93,10.92,2.23,16.09,3.24,5.67,1.11,11.31,2.45,17.03,3.37,11.41,1.85,23.06,3.11,34.56,4.12s23.85,1.52,35.47,3.89c5.67,1.15,11.23,2.5,16.82,3.94,4.02,1.04,11.97,4.35,15.05.5.61-.76.57-1.77-.3-2.33-2.38-1.53-5.32-1.18-8.05-1.65-2.92-.51-5.82-1.3-8.68-2.07-5.9-1.58-12.02-2.82-18.07-3.73-10.99-1.65-22.19-2.26-33.26-3.13s-23.01-1.8-34.38-3.34c-5.63-.76-11.22-1.95-16.88-2.53-2-.2-4.01-.33-6.01-.43-.64-.03-9.15,0-9.29-.28-.06-.11-.21-.05-.22.06h0Z"/>
      </g>
      <g class="cls-1">
        <path class="cls-5" d="M685.19,500.08c5.67,2.41,13.56,1.58,19.63,2.03,7.98.59,15.98,1.33,23.89,2.55,7.17,1.11,14.44,1.93,21.68,2.29,8.77.43,17.71.14,26.44.88,7.71.66,15.43,1.52,23.16,2.05,8.9.61,17.13,2.38,25.83,4.16,6.43,1.31,12.78,2.4,19.29,3.24,7.54.98,15.1,2.64,22.72,2.69s15.49-.14,23.14.66c7.81.82,16.47,3.67,24.29,2.42,1.39-.22,1.37-2.54,0-2.79-28.11-5.08-56.62-7.45-84.72-12.34-7.09-1.23-14.1-3.23-21.29-3.94-8.05-.8-16.31-.87-24.38-1.24-15.69-.71-31.34,1.13-47.01-.35-8.87-.84-17.81-1.54-26.71-2.04-4.2-.23-8.33-.15-12.53-.14-2.12,0-4.19.05-6.31.12-1.9.07-5.27.46-7.06-.35-.06-.03-.11.06-.05.09h0Z"/>
      </g>
      <g class="cls-1">
        <path class="cls-5" d="M924.62,470.78c-2.81-4.75-7.82-6.51-12.95-7.61-6.59-1.41-13.23-2.62-19.87-3.74-12.25-2.07-24.25-5.65-36.48-8.01-13.54-2.62-27.03-6.33-40.38-9.89-7.54-2.01-15.49-2.99-23.15-4.54s-15.83-2.89-23.81-3.23c-17.39-.74-34.73-4.2-52.2-3.4-2.02.09-2,2.97,0,3.12,15.06,1.15,29.91,4.2,44.88,6.08,7.88.99,15.87,1.6,23.67,3.18s15.21,3.52,22.88,4.98c6.54,1.24,13.03,3.29,19.5,4.88,7.49,1.84,15.06,3.49,22.57,5.32,10.71,2.61,21.97,4.55,32.89,6.28,6.47,1.03,12.98,2.13,19.51,2.56,7.86.52,15.05,2.32,22.53,4.52.29.09.55-.25.4-.52h0Z"/>
      </g>
      <g class="cls-1">
        <path class="cls-5" d="M907.93,434.39c-4.54-2.64-11-2.82-16.09-3.44-5.47-.67-10.88-1.36-16.33-2.11-6.97-.97-13.82-2.56-20.81-3.42-7.47-.92-14.99-1.51-22.48-2.11-6.77-.55-13.57-.5-20.31-1.4s-12.99-2.18-19.49-3.24c-14.57-2.38-29.62-3.58-44.32-4.17-1.49-.06-1.69,2.1-.34,2.53,6.97,2.21,15.05,1.8,22.28,2.6,6.8.76,13.72,1.23,20.48,2.28,6.37.99,12.73,2.19,19.12,2.97,6.75.83,13.47.97,20.24,1.4,13.55.87,26.82,2.62,40.27,4.43,5.85.79,11.76,1.3,17.64,1.61s14.46-.46,20.11,2.13c.04.02.08-.04.04-.07h0Z"/>
      </g>
      <g class="cls-1">
        <path class="cls-5" d="M822.65,425.52c4.21.66,8.44,2.6,12.55,3.79,2.74.8,5.53,1.52,8.32,2.11,5.91,1.25,11.89,2.07,17.86,3.05,6.38,1.05,12.96,2.11,19.42,2.58,3.46.25,6.94.29,10.41.58,2.47.21,6.03,1.52,8.32.26.92-.5,1.17-1.97.35-2.69-3.97-3.48-9.46-2.77-14.4-3.33-6.16-.71-12.34-.64-18.51-1.3-13.28-1.41-27.77-2.11-40.26-7.03l-.91,3.29c14.14,2.18,27.75,6.12,42.07,7.4,5.8.52,11.66.6,17.43,1.24,2.68.3,5.34.55,8.01.93,2.88.41,6.06,1.6,9,1.26,1.55-.18,2.11-1.98.79-2.91-3.22-2.28-7.65-2.87-11.45-3.58-4.55-.85-9.24-.99-13.84-1.08-10.88-.22-21.79-.29-32.43-2.9-2-.49-2.85,2.56-.85,3.09,16.78,4.45,34.3,5.57,51.34,8.62,2.5.45,11.7,3.41,13.11.04,1.85-4.41-8.8-5.93-11-6.75l-.4,2.97c2.31.29,4.54,1.23,6.84,1.65,2.73.49,5.62.16,8.33.71l-.61-2.31c-1.1,1.41-6.34.82-7.76.76-2.9-.11-5.76.33-8.63-.47-2.43-.67-3.48,3.19-1.04,3.77,3.78.89,7.95.44,11.76.13,2.11-.17,6.2-.45,7.62-2.24.6-.75.51-2.06-.61-2.31-2.89-.63-5.88-.4-8.81-.92-2.28-.41-4.43-1.34-6.69-1.75-1.54-.28-2.86,2.03-1.17,2.76,1.91.83,3.94,1.3,5.86,2.12,1.05,1.23,2.01,1.37,2.88.42,1.33-.68,1.02-.92-.94-.72-.75-.2-1.61-.2-2.38-.28-6.16-.63-12.21-1.8-18.36-2.64-13.05-1.78-25.74-3.3-38.51-6.66l-.85,3.09c9.32,2.28,18.44,2.41,27.95,2.73,5.07.17,10.19.25,15.23.84,4.15.49,10.36,1.17,13.82,3.62l.79-2.91c-2.78.32-5.91-.92-8.68-1.31-2.99-.42-5.99-.74-9-.98-5.22-.4-10.44-.69-15.67-1.01-6.83-.43-13.94-1.44-20.67-2.73-7.26-1.38-14.3-3.67-21.58-4.97-2.19-.39-2.93,2.47-.91,3.29,11.69,4.76,24.34,4.28,36.57,6.3,5.69.94,11.37,1.11,17.14,1.22s13.58-.52,17.94,3.26l.35-2.69c-1.52.84-7.58-.75-9.47-.84-3.28-.15-6.59-.33-9.86-.68-5.99-.65-11.95-1.59-17.93-2.32s-11.64-1.42-17.49-1.84c-6.95-.5-13.55-2.55-20.37-3.85-.06-.01-.09.09-.03.1h0Z"/>
      </g>
      <g class="cls-1">
        <path class="cls-5" d="M848.01,398.78c1.65-.14,3.56.56,5.24.66,2.43.15,4.83.45,7.25.67,3.66.33,7.88,1.57,11.51.79.39-.08.55-.65.24-.91-2.78-2.41-7.56-1.64-11.01-1.8-2.71-.13-5.3-.07-8,.17-1.74.15-3.6-.27-5.28.13-.17.04-.14.32.04.31h0Z"/>
      </g>
      <g class="cls-1">
        <path class="cls-5" d="M926.86,391.61c-9.4-7.72-23.88-7.93-35.43-9.18-15.07-1.63-29.67-5.4-44.69-7.26s-30.51-2.12-45.53-5.32c-13.11-2.79-26.08-3.51-39.34-4.89-7.39-.77-14.75-1.3-22.1-2.4-6.24-.93-13.51-1.85-19.76-.92-.93.14-.93,1.74,0,1.88,5.92.9,11.97.8,17.91,1.53,6.4.79,12.74,2.16,19.07,3.33,12.55,2.3,25.21,4.03,37.7,6.67,14.96,3.17,29.87,4.3,45.09,5.49,14.21,1.11,28,4.85,42.16,5.87,15.04,1.08,30.27,1.2,44.84,5.32.07.02.14-.08.08-.13h0Z"/>
      </g>
      <g class="cls-1">
        <path class="cls-5" d="M299.74,463.54c1.55-.78,5.92-.86,7.6-.85,2.95.03,5.75-.06,8.7-.13,4.98-.11,9.95-.68,14.89-1.35,10.9-1.47,21.76-3.24,32.69-4.31s21.65-.59,32.41-1.74c5.64-.61,11.35.08,17.01-.38s11.24.4,16.6,1.38c1.49.27,2.04-1.73.62-2.26-4.28-1.61-9.55-1.97-14.1-2.15-5.6-.22-11.55.18-17.21.31s-11.7,1.15-17.53,1.22-11.37.08-17.06.76c-11.37,1.37-22.68,3.22-33.97,5.22-5.63,1-11.2,1.73-16.86,2.42-4.22.51-9.92-.09-13.84,1.76-.06.03,0,.12.05.09h0Z"/>
      </g>
      <g class="cls-1">
        <path class="cls-5" d="M333.06,392.48c4.98-2.3,12.13-2.28,17.48-3.05s10.39-2,15.65-2.69c11.98-1.58,24.04-3.9,36.11-4.42,10.87-.47,21.76-.2,32.59-1.15,5.66-.5,12.05-1,17.69-.42,2.21.23,4.37.25,6.59.24,2.03,0,5.46-.86,7.29-.04.53.24,1.14-.4.66-.86-2.56-2.46-7.94-1-11.13-1.13-5.51-.23-10.57-.04-16.09.06-12.54.24-25.07.76-37.6,1.35s-24.93,3.16-37.28,4.94c-5.73.83-11.47,2.01-17.11,3.22-4.66,1-10.71,1.56-14.93,3.81-.09.05-.01.18.08.13h0Z"/>
      </g>
      <g class="cls-1">
        <path class="cls-5" d="M327.57,409.85c2.67-1.31,7.59.03,10.56.02,3.31-.01,6.54.13,9.84.23,3.95.13,7.94.08,11.9.16,4.17.08,8.44-.59,12.57-.35,13.73.81,29.28-.6,42.15,5.09,3.22,1.43,10.79,5.39,4.9,9.49-2.56,1.78-6.71,1.99-9.73,2.51-7.8,1.35-16.22,2.29-24.15,1.73-6.1-.43-12.3-.91-18.43-.49s-15.55.84-20.26,4.91c-.94.81-.19,2.53,1.02,2.47,6.56-.32,13.13-2.79,19.77-3.34s13.26.31,19.87.35c7.03.05,14.12-.55,21.02-1.88,4.56-.88,10.86-1.76,14.45-5.04,8.4-7.7-9.72-14.44-14.77-15.72-5.64-1.43-11.57-1.37-17.3-1.8-3.61-.28-7.22-.07-10.83,0-3.41.08-6.77-.63-10.17-.37-8.34.62-17.03,1.25-25.36.56-3.42-.28-6.81.45-10.25.51-2.19.04-4.96-.36-6.84.89-.04.03,0,.09.04.07h0Z"/>
      </g>
      <g class="cls-1">
        <path class="cls-5" d="M362.88,422.13c-6.54-2.73-12.75-3.59-19.78-3.45-7.72.16-15.61-.4-23.3.27-5.7.5-11.43.56-17.02,1.66s-13.14,1.78-17.68,5.91c-1.41,1.28-.55,3.43,1.05,3.98,3.21,1.11,6.44-.17,9.67-.89,2.66-.59,5.29-1.08,7.96-1.58,5.66-1.06,11.69-1.42,17.45-1.7,7.52-.36,15.14.02,22.66-.73,3.14-.31,6.4-.55,9.48-1.29s6.5-1.07,9.5-1.97c.12-.04.1-.18,0-.23h0Z"/>
      </g>
      <g class="cls-1">
        <path class="cls-5" d="M499.55,442.82c6.5.46,13.44-1.17,19.92-1.73,6.97-.6,13.91-1.54,20.85-2.22,15.17-1.47,30.54-1.54,45.76-1.55s29.1,1.71,43.63,2.92c8.01.66,15.6,2.52,23.45,4.18,3.35.71,6.71,1.1,10.06,1.83,3.02.66,6.24,1.62,9.33,1.65,4.3.04,4.12-6.16,0-6.56-3.26-.32-6.66-1.25-9.94-1.75-3.9-.59-7.78-.58-11.7-1.14-7.39-1.05-14.72-2.19-22.14-2.89-14.51-1.36-29.04-2.58-43.66-2.54s-30.88.12-45.81,2.46c-13.23,2.07-26.95,3.13-39.81,6.95-.22.06-.16.37.05.38h0Z"/>
      </g>
      <g class="cls-1">
        <path class="cls-5" d="M702.94,384.33c-4.13-2.14-9.25-2.57-13.81-2.89-6.88-.49-13.78-1.7-20.72-1.77-6.4-.06-13.26-1.37-19.6-2.22s-12.64-1.25-19-1.88c-13.55-1.34-26.96-3.4-40.48-4.81-8.21-.86-16.88-1.18-25.15-1.25-3.9-.03-7.89-.26-11.78,0-3.35.22-5.89,1.7-9.23,1.97-6.43.52-12.84,1.82-19.23,2.82-3.71.58-7.39,1.59-11.06,2.38-3.24.7-5.94.47-8.92,1.88-.81.38-.66,1.86.26,2,5.44.82,11.06-.93,16.37-1.96,6.16-1.2,12.4-2.05,18.64-2.62s11.38,1.63,17.68,1.61c8.29-.02,16.7.24,24.96-.1,13.55-.57,26.97,1.75,40.49,2.85,12.52,1.02,24.97,1.85,37.47,2.64,7.69.49,15.21.27,22.9.21,3.43-.03,7.03.19,10.44.42,3.11.21,6.68.03,9.65,1.03.17.06.28-.2.12-.29h0Z"/>
      </g>
    </g>
    <g class="cls-6">
      <path class="cls-5" d="M272.23,329c4.04-1.71,7.97-3.42,11.77-5.57,5.88-3.32,19.88-8.66,18.5-17.65-.54-3.53-4.36-6.76-7.14-8.7-3.64-2.54-7.4-3.97-11.7-5.02-10.26-2.5-20.12-3.89-30.69-3.13-4.67.33-9.37-.93-14.03-.68-5.79.31-11.63.1-17.42.64-10.94,1.02-21.78,3.34-32.18,6.77-3.14,1.03-5.72,2.58-8.64,3.6-5.17,1.81-10.45,3.08-15.64,4.81-.27.09-.24.53.07.51,6.96-.35,13.62-3.85,20.34-3.61,7.97.29,15.86-2.15,23.66-3.47,4.71-.8,9.32-1.51,14.1-1.82,4.99-.32,10.02.06,14.99-.43,4-.39,8.13.38,12.15.54,4.77.19,9.51-.9,14.33-.38,8.18.89,17.6,1.19,25,5.07,4.67,2.45,10.01,6.55,3.88,10.88-4.13,2.92-8.61,5.24-12.99,7.75-14.74,8.44-31.21,13.6-47.96,16.15-5.27.8-10.49,2.04-15.77,2.68-4.54.55-8.77.59-13.29.61-9.38.04-18.64,1.37-27.99,1.14-.04,0-.05.06,0,.07,4.17.91,8.11,1.32,12.35,1.75,4.99.5,9.99.34,15.03.73,4.19.33,8.26.76,12.53.38,4.79-.42,9.56-1.53,14.31-2.28,10.35-1.63,20.55-3.14,30.57-6.27,4-1.25,7.97-3.43,11.87-5.07Z"/>
      <path class="cls-5" d="M243.53,309.75c-4.11-.57-8.67.12-12.8.47-3.51.3-7.04.52-10.51,1.14-4.39.78-8.98,1.21-13.44,1.62-4.54.42-9.6.47-13.97,1.8-1.58.48-1.37,3.13.41,2.99,6.16-.45,12.18,0,18.31-.38-2.63.44-5.26.91-7.9,1.11-.55.05-.88.41-.99.82-1.96.38-3.92.77-5.88,1.12-3.61.65-7.36,1.88-11.04,1.92-.79,0-1.21.55-1.27,1.15-.34.04-.69.08-1.03.11-2.28.24-4.44-.07-6.73.02-.06,0-.06.1,0,.1,2.52-.03,5.5.64,8.13.89.21.22.51.37.9.39,1.03.07,2.04,0,3.05-.15,2.24.09,4.46.09,6.76,0,5.35-.19,10.78-.49,16.08-1.2,7.17-.96,14.1-3.35,21.04-5.32,3.45-.98,10.3-2.23,11.93-6.01.39-.91.2-2.41-1.05-2.58ZM219.49,316.42c-.23.02-.46.04-.68.06,1.16-.18,2.32-.36,3.47-.52-.93.16-1.87.3-2.79.47ZM237.53,313.12c-.21-.17-.5-.26-.84-.12-.84.31-1.7.59-2.56.86-.4.08-.8.14-1.2.21-.03-.04-.06-.08-.1-.1-1.21-1.14-3.18-.72-4.72-.71,3.57-.5,7.21-.83,10.59-.63-.39.18-.78.34-1.18.5Z"/>
      <path class="cls-5" d="M374.92,292.72c-5.25-2.44-11.09-4.34-16.72-5.69-5.3-1.26-11.23-1.11-16.68-1.58-5.76-.5-11.94-.95-17.69-.86-24.09.41-48.28-4.04-72.22-6.43-6.63-.67-13.15-1.92-19.82-2.46-7.04-.56-14.46-.25-21.53.15-8.05.44-16.25.5-24.25,1.39-7.17.8-14.2,2.32-21.28,3.59-1.67.3-1.31,3.16.41,3,12.64-1.25,24.96-2.6,37.69-2.29,12,.3,23.82-.27,35.79.73,11.38.94,22.58,3.89,33.99,4.87,5.05.43,10.13.97,15.19,1.21,5.87.28,11.62,1.79,17.49,1.86,10.83.12,21.44.92,32.23,1.1,5.38.1,10.75.77,16.11,1.08,5.58.32,11.31,2.64,16.52,4.65,2.32.9,4.84,1.86,7.08,2.93.37.17.99.64,1.38.8-1.13.89-2.89,1.6-4.06,2.17-4.98,2.47-10.13,4.58-15.2,6.9-10.66,4.89-21.06,9.91-32.3,13.64-7.62,2.53-14.78,6.15-22.45,8.64-6.48,2.11-12.98,4.05-19.32,6.6-13.31,5.35-29.14,7.13-43.35,6.91-.07,0-.06.09,0,.1,3.2.38,6.26,1.48,9.5,1.49,3.51,0,7.04.33,10.54.26,7.06-.16,13.84-1.69,20.78-2.92,6.2-1.11,12.25-3.29,18.25-5.16,7.24-2.26,14.31-4.37,21.24-7.52,11.6-5.27,23.87-8.63,35.23-14.23,5.35-2.64,10.8-5.37,16.31-7.66,3.58-1.5,12.03-4.4,11.68-9.4-.35-4.96-7.03-6.22-10.56-7.87Z"/>
      <path class="cls-5" d="M444.36,295.33c.01-.2-.03-.4-.16-.58-1.58-2.27-5.49-2.8-8.61-3.24-.8-.26-1.65-.49-2.57-.72-4.95-1.28-9.89-2.53-14.89-3.61-1.4-.3-2.8-.59-4.2-.86-.25-.09-.5-.16-.76-.25-5.33-1.89-10.82-3.79-16.47-4.35-2.97-.29-5.99-.42-9-.53-15.87-3.81-32.31-8.11-48.67-8.67-4.92-.8-9.86-1.73-14.78-2.31-7.03-.83-14.26-.18-21.34-.35-6.79-.16-13.61-.55-20.36-1.43-6.73-.88-13.45-2.02-20.22-2.72-7.08-.73-14.38.25-21.47.25-9.18,0-18.37-.09-27.55-.04-6.97.03-13.95-1.11-20.96-1.07-.44,0-.42.62,0,.67,6.86.86,13.08,3.2,20.06,3.37,9.16.21,18.35,0,27.51,0,7.61,0,15.31-.79,22.88-.07,6.67.63,13.41,1.66,20.02,2.7,6.56,1.03,13.31,2.04,19.93,2.54,7.14.54,14.37.34,21.46,1.08,6.03.63,11.9,1.95,17.94,2.32,1.55.1,3.1.09,4.65.02,3.75.74,7.53,1.35,11.46,2,4.61.76,9.2,1.6,13.78,2.46,6.06,1.76,12.47,2.38,18.54,4.15,3.82,1.12,7.86,1.53,11.62,2.76,5.29,1.74,10.35,4.14,15.67,5.81,4.17,1.31,8.77,2.52,13.08,3.28,1.65.29,3.21.38,4.82.85.16.05.79.34,1.38.54-.43.61-.89,1.58-1.35,2.1-2.06,2.34-4.17,4.43-6.58,6.14-1.93,1.02-3.83,2.1-5.77,3.08-1.83.74-3.75,1.5-5.51,2.45-7.51,3.16-15.09,6.28-22.7,9.38-8.79,3.58-18.28,5.68-27.38,8.36-5.06,1.49-10.17,2.49-15.28,3.72-5.24,1.26-10.57,3.05-15.93,3.64-.05,0-.05.07,0,.07,5.17-.04,10.39-1.18,15.5-1.92,6.1-.88,12.06-2.12,18.04-3.6,11.26-2.8,22.21-5.89,32.99-10.19,4.62-1.84,9.33-3.2,13.83-5.34,4.06-1.94,8.12-4.04,12.2-6.03.02,0,.04-.02.07-.03,1.89-.82,3.95-1.71,5.92-2.75,5.5-2.55,12.96-6.7,10.19-12.35-.22-.44-.59-.67-1-.73Z"/>
      <path class="cls-5" d="M481.11,248.57c-7.98-1.77-16.38-3.05-24.49-4.2-7.88-1.11-15.75-2.41-23.63-3.29-8.07-.9-16.31-2.08-24.42-2.55-8.95-.52-17.95.4-26.86-.76-8.69-1.13-17.52-.39-26.18-1.32-7.51-.8-15.08-1.02-22.56-1.73-16.52-1.56-33.26-1.04-49.51-5.04-9.63-2.37-19.99-3.56-29.31-6.93-4.58-1.65-8.96-3.52-13.39-5.53-3.62-1.64-10.22-5.3-11.48-9.62-.12-.43-.84-.37-.8.11.47,5.61,7.67,9.98,12.05,12.3,7.91,4.19,16.09,7.09,24.81,9.07,8.87,2.02,17.49,4.87,26.43,6.57,8.6,1.63,17.16,2.59,25.86,3.33,7.89.67,15.82,1.11,23.67,1.66,4.65.33,9.34,1.02,13.96,1.5,4.53.47,9.13,0,13.69.44,9.07.88,18.17,1.4,27.22,2.14,4.71.39,9.46-.16,14.17.33,4.06.42,8.17.71,12.21,1.26,4.5.61,9.01,1.05,13.51,1.5,5.31.53,10.59,1.73,15.9,2.44,9.98,1.32,18.97,3.96,29.13,2.38,2.09-.33,1.95-3.66,0-4.09Z"/>
      <path class="cls-5" d="M173.69,248.21c3.66,2.09,9.36,2.37,13.54,2.4,6.16.05,12.35.23,18.5.71,11.35.89,22.93,2.47,34.34,2.02.15,0,.14-.21,0-.22-6.52-.66-13.05-2.32-19.5-3.49-4.82-.87-9.74-1.18-14.61-1.8-5.66-.72-11.4-1.25-17.1-1.59-4.42-.26-10.6-2.21-14.82-.83-1.21.4-1.55,2.11-.36,2.79Z"/>
      <path class="cls-5" d="M937.07,295.02c-.05-3.87-1.87-4.76-4.27-4.82-.35,0-.71,0-1.09.03-2.35-2.39-7.04-1.82-10.26-1.83-7.31-.02-14.58-1-21.88-1.04-7.25-.05-14.59.12-21.85-.2-2.92-.57-5.9-.7-8.97-.9-5.34-.34-10.72-.74-16.07-1.01-11.24-.57-22.57.04-33.85.4-3.71-.85-7.43-1.56-11.19-2-6.12-.72-12.26-.96-18.38-1.5-2.11-.52-4.23-.98-6.38-1.24-2.7-.31-5.41-.43-8.13-.46-10.05-1.27-19.96-1.44-30.06-2.32-3.39-.38-3.43,5.05,0,5.35.74.07,1.49.1,2.23.13,5.95.43,11.8,1.43,17.79,1.45,1.86,0,3.72-.02,5.59-.04,2.62.73,5.23,1.54,7.82,2.04,4.5.87,8.39,1.55,12.38,2.58,4.44,1.14,8.63,2.96,13.12,3.88,9.35,1.91,18.92,3.73,28.45,4.67.41.24.9.41,1.48.48,8.63,1.01,17.52,1.66,26.33,1.71,10.15,1.8,20.4,3.06,30.63,4.38,6.12.79,12.28.22,18.43.39,3.42.1,6.83.32,10.24.46,3.31.12,6.92-.22,10.19.48.89.19,1.25-1.09.37-1.36-.22-.07-.45-.11-.67-.18.03-.03.07-.05.1-.08.03,0,.06,0,.09,0,.37-.09.76-.14,1.15-.19.62.08,1.24.16,1.86.24.04,0,.08,0,.11.02.98.13,1.66-.39,2-1.13.43-.2.85-.45,1.21-.78,1.77-1.64,1.51-5.55,1.49-7.6ZM887.73,292.14c-.03-.2-.09-.4-.18-.57.03-.15.03-.3.02-.46h.14c-.07.35-.04.71.1,1.03h-.09ZM925.95,303.72c.31.09.12.21,0,0h0ZM924.76,298.62c-.06,0-.12,0-.18-.02.06-.04.11-.09.16-.13.49.08.95.19,1.4.33-.47-.07-.92-.12-1.38-.18Z"/>
      <path class="cls-5" d="M683.01,251.07c6.32,1.98,13.64,2.23,20.21,3.08,6.99.9,14.25,1.75,21.31,1.64,11.89-.19,24.49.1,36.25,2.21,5.57,1,11.21,1.49,16.77,2.6,6.43,1.28,12.76,2.95,19.2,4.19,12.55,2.42,25.15,4.57,37.75,6.69,7.13,1.2,14.21,2.77,21.35,3.89,2.77.43,5.54.74,8.33.77,3.08.03,6.67-.61,9.68-.01.04,0,.07-.05.03-.07-3.88-1.77-9.37-2.06-13.59-2.87-6.69-1.28-13.34-2.81-20.02-4.1-12.41-2.4-24.91-4.93-37.36-7.01-12.32-2.06-24.15-6.13-36.1-9.56-5.51-1.58-11.53-2.29-17.23-2.91-5.95-.64-12.45-1.19-18.41-.79-15.95,1.08-31.95-.13-47.94.57-.96.04-1.16,1.39-.23,1.68Z"/>
      <path class="cls-5" d="M906.18,321.72c-6.92-.74-13.82-1.51-20.75-2.08-7.89-.65-15.63-.84-23.41-2.64-7.1-1.64-13.81-4.36-20.77-6.49-6.78-2.07-13.85-2.92-20.93-3.26-14.12-.69-28.05-3.08-42.11-4.23-14.98-1.23-29.68-.87-44.69-.29-8.4.33-16.81.63-25.19.9-8.31.27-16.85-.21-25.1.51-.81.07-1.14,1.37-.21,1.54,13.89,2.49,28.47,1.48,42.55,1.83,15.67.39,31.38-.83,47.01.63,13.62,1.28,27.08,3.77,40.76,4.62,8.09.5,16.18.44,24.1,2.41,6.68,1.66,13.18,4.17,19.93,5.53,16.01,3.24,32.64,2.9,48.81,1.23.14-.01.14-.21,0-.22Z"/>
      <path class="cls-5" d="M760.78,224.17c4.74-.02,9.46.04,14.19.22,10.86.42,21.67.63,32.54.39,21.2-.46,42.21-1.61,63.38.16.05,0,.07-.08.01-.09-4.16-.79-8.1-2.2-12.32-2.83-5.04-.75-9.85-1-14.95-1.07-11.06-.15-22.01-.39-33.03-1.34-10.6-.92-21.3-.6-31.92-1.35-4.22-.3-8.47-.51-12.69-.58-2.9-.04-5.81-.08-8.7-.04-2.62.04-5.35.73-7.94.62-1.68-.07-2.46,2.11-1.34,3.24,3.34,3.38,8.43,2.67,12.77,2.65Z"/>
      <path class="cls-5" d="M628.81,317.66c-6.01-.49-11.39-3-17.29-3.83-5.04-.71-9.98-2.22-15.1-2.72-5.99-.58-12.2-.27-18.2.24-6.21.53-12.3.81-18.53.99-23.39.66-46.67,2.69-70.07,3.73-.05,0-.05.07,0,.07,11.89.53,23.69-.22,35.55-.22,5.73,0,11.47-.1,17.19-.35,5.99-.26,11.92,1.02,17.83,1.73,12.23,1.47,24.34-.45,36.53.7,5.1.48,10.08.28,15.17.34,2.68.03,5.36-.15,8.05-.36,3-.23,5.86.12,8.85.04.24,0,.24-.35,0-.37Z"/>
      <path class="cls-5" d="M561.17,226.79c2.48,1.2,5,1.06,7.69,1.17,4.1.18,8.14.77,12.23,1,7.21.4,14.4,1.29,21.62.98.1,0,.09-.14,0-.15-7.52-.85-14.92-2.79-22.43-3.77-5.83-.76-13.08-2.36-18.85-1.14-.85.18-1.05,1.52-.25,1.9Z"/>
      <path class="cls-5" d="M502.62,224.88c5.76-.14,11.51-.28,17.28-.29,4.8,0,9.44.61,14.21.94,2.54.18,5.07.33,7.61.21,2.01-.09,5.13-.96,7.03-.28.08.03.13-.1.06-.14-2.77-1.48-7.41-1.27-10.54-1.68-5.22-.69-10.45-1.21-15.7-1.42-6.17-.25-12.36.06-18.51.2-4.44.1-10.43-.41-14.57,1.22-.49.19-.49.81,0,1,3.84,1.5,9.12.32,13.14.23Z"/>
    </g>
    <g>
      <path class="cls-19" d="M615.08,285.58c-.06,0-.11-.02-.17-.04-.28-.07-.55-.21-.81-.43-1.92-1.65-4.44-2.19-6.96-2.19-2.17,0-2.55,1-4.51,1.46-.14.04-.28.06-.4.08-.93.15-1.19-.12-2.32-.46-2.18-.63-4.27-.48-6.54-.54-6.18-.19-12.27-1.68-18.37-2.68-3.96-.3-7.89-.73-11.88-.86-5.05-.16-10.32-.58-15.15-2.15-.24-.08-.28-.32-.17-.49.05-.11.17-.18.34-.14.3.07.59.13.9.19.34.07.69.11,1.04.16.5-.06,1.08-.09,1.49-.1,10.97.32,45.68,1.52,50.94,1.97,3.9.33,7.56.52,10.3,1.92,1.03.97,1.94,2.33,2.28,4.29Z"/>
      <path class="cls-19" d="M605.76,235.54c-.06.03-.12.05-.2.04-9.06-.94-18.05-2.16-27.12-2.86-5.05-.38-10.17-1.57-15.07-2.78-4.17-1.03-9.26-2.02-13.13-3.78-.14-.07-.19-.2-.19-.33.02-.23.23-.47.48-.36.94.4,1.92.71,2.93.95h0c2.24.55,4.6.79,6.94,1.01.02,0,.04,0,.06,0,2.02.28,3.84.51,5.01.68,4.97.68,40.07,6.76,40.26,7.33,0,.03.02.07.02.1Z"/>
      <path class="cls-19" d="M619.78,196.3s-3.51,1.69-6,3.33c-.24.06-.47.1-.67.11-.34.03-.6-.11-.79-.33-.05-.04-.1-.05-.15-.1-3.3-2.95-9.35-3.31-13.5-3.92-5.38-.79-10.76-.99-16.14-1.79-6.93-1.03-13.99-1.32-21-1.96-1.41.09-2.83.07-4.18-.25-2.01-.07-4.02-.13-6.02-.21-4.56.28-9.36-.29-13.87-.49h-.07c-1.1-.03-5.44.07-9.15-.14-3.31,0-6.62,0-9.91,0-5.44-.04-10.85.04-16.29-.36-6.71-.5-14.16.5-20.71-.98-.54-.11-.41-.86.07-.95,3.19.06,6.15.1,8.86.15,4.54.08,8.82.15,12.85.23,4.74.26,9.46.5,14.17.52,2.07,0,4.13.05,6.19.1.88-.03,2.32-.07,3.95-.12,19.31.44,28.87.77,32.18.9.02,0,.05,0,.08,0,.18.02.36.03.55.04.25,0,.5.02.76.02,11.03,0,36.94-.12,46.95.82,1.95.18,3.31.4,3.82.68,1.19.63,2.67,1.42,4.06,2.17.04.02.08.04.11.07.42.22.84.45,1.23.66.11.06.22.11.31.17.15.09.3.17.45.26.17.1.31.19.46.29.11.07.22.14.31.21.36.26.63.49.81.65.06.05.1.1.14.13.09.08.12.12.12.12Z"/>
    </g>
    <g>
      <path class="cls-19" d="M474.38,431.35c5.43-.1,11.57-2.02,16.7-3.8,6.9-2.39,13.87-4.36,20.99-5.97s13.82-2.13,20.3-4.99,13.44-6.58,20.39-8.84c.35-.11.3-.67-.09-.66-2.5.08-5.03,1.19-7.41,1.93-3.65,1.14-7.32,2.27-10.92,3.57-7.2,2.59-14.22,4.1-21.68,5.71s-13.91,3.87-20.68,6.54c-5.51,2.18-11.75,5.48-17.62,6.37-.08.01-.06.13.02.13h0Z"/>
      <path class="cls-19" d="M512.39,393.59c-7.7,1.24-15.64,4.36-23.06,6.82-6.62,2.19-12.63,5.88-19.13,8.21-.33.12-.28.59.08.61,2.66.14,5.35-1.25,7.74-2.28,3.71-1.61,7.35-3.31,11.16-4.67s7.44-2.35,11.08-3.71c4.12-1.53,7.83-3.96,12.16-4.89.06-.01.03-.1-.03-.09h0Z"/>
      <path class="cls-19" d="M530.39,266.83c-.04.08-.1.13-.16.19-1.72,1.31-4.34.62-6.36.48-2.96-.22-5.65.07-8.57.41-3.58.41-6.91,1.31-10.54,1.3-3.67-.02-7.3-.1-10.94.3-10.82,1.15-21.51,3.57-32.21,5.61.55-1.04,1.65-2.3,3.8-3.36,3.08-1.02,6.32-1.64,9.33-2.17,3.11-.54,6.22-1.14,9.33-1.71,7.35-.91,15.6-1.51,22.33-1.51,10.01,0,19.56.61,24,.48Z"/>
      <path class="cls-19" d="M659.53,198.59c-.76-.14-1.53-.27-2.32-.36-.83.1-1.68.3-2.37.35-2.15.14-4.21-.15-6.35-.29-2.28-.14-4.74.07-7.15.03,0,0-.03,0-.04,0-1.93.11-3.86.22-5.75.25-7.2.12-14.34,1.29-21.57,1.29s-13.81.91-20.7,1.27c-7.71.4-15.27.74-23,.74-14.31-.02-28.74,1.92-43.09,1.98-7.13.03-14.47.81-21.59.25-7.91-.62-15.77.47-23.67.02-6.86-.38-13.56.1-20.39.06-3.43-.02-6.69.34-10.05.97-.52.1-1.04.22-1.54.35.38-2.1,2.44-3.41,8.36-3.9,7.57-.62,33.13,0,33.13,0,0,0,100.4-2.37,145.53-3.78,7.86-.24,14.04-.46,17.72-.63.04,0,.07,0,.1,0,.2,0,.38-.02.56-.03.49-.02,1-.05,1.56-.08.06,0,.12,0,.18,0,.83-.05,1.73-.1,2.71-.14h0c.54-.03,1.1-.07,1.68-.1.13.96-.74,1.99-1.94,1.75Z"/>
      <path class="cls-19" d="M516.51,126.71c-12.37,4.85-25.83,5.33-38.81,7.4-12.26,1.97-24.67,3.71-36.99,5.15-.18-1.79-.22-2.92-.07-3.15.1-.16,1-.38,2.53-.65.05,0,.1-.02.15-.03,2.22-.3,4.45-.65,6.67-.99.05,0,.09,0,.13-.02,13.08-1.75,36.71-4.29,51.54-5.91.03,0,.06,0,.09,0,4.95-.28,9.88-.73,14.73-1.84.03,0,.04.03,0,.04Z"/>
      <path class="cls-19" d="M515.4,97.63c-5.26,2.68-11.6,3.81-17.29,5.19-3.53.86-6.96,2.23-10.5,3.04-3.34.76-6.78,1.2-10.15,1.96-7.67,1.72-14.98,3.97-22.49,6.26-4.17,1.27-8.42,2.34-12.66,3.36-1.05.25-2.06.66-3.05,1.09.24-1.71,1.04-3.24,2.89-3.98,3.91-1.56,38.75-9.38,59.45-13.97.03,0,.06,0,.08-.02,4.62-.78,9.3-1.55,13.7-2.97.03,0,.04.03.02.04Z"/>
    </g>
    <g class="cls-4">
      <path class="cls-5" d="M204.26,164.47c6.24-1.78,12.24-2.89,18.66-3.97,6.72-1.13,13.17-2.82,20.03-2.88,13.9-.13,27.22-4.81,40.84-7.3,6.18-1.13,12.28-2.75,18.47-3.65,5.58-.81,11.41-1.25,16.87-2.86,5.48-1.61,10.6-4.09,16.15-5.58,5.7-1.53,11.25-3.16,17.05-4.4,10.44-2.22,21.15-1.97,31.67-3.35,11.57-1.52,22.83-4.31,34.45-5.53,13.43-1.4,26.34-5.98,40.04-4.94,4.62.35,9.61,1.5,14.24.94,3.52-.43,6.85-.85,10.39-1.02,1.65-.08,2.89-.31,4.15-1.41.02-.02,0-.05-.03-.04-2.58,1.67-6.07.56-8.91.72-3.33.19-6.32,1.04-9.72.67-4.78-.52-9.46-1.43-14.28-1.65-11.3-.51-22.22,1.71-33.36,3.25-4.64.64-9.39.69-14.06,1.42-6.74,1.05-13.51,1.96-20.25,3-9.51,1.47-19.15,1.58-28.71,2.54-5.61.56-11.42,1.82-16.85,3.26-5.28,1.4-10.91,2.86-16.03,4.84-5.85,2.26-11.07,3.62-17.28,4.44-5.16.68-10.16,1.53-15.27,2.68-6.87,1.56-13.8,2.78-20.68,4.28-7.24,1.59-14.67,3.92-22.03,4.73-5.46.6-10.98.14-16.47.75-6.85.76-13.88,2.55-20.71,3.71-6.18,1.05-11.97,3.59-18.14,4.68-6.14,1.08-12.63,2.49-18.87,2.95-5.71.43-11.15,1.51-16.85,2.25-3.84.5-7.67,1.22-11.53,1.51-3.56.27-7.43,1.07-10.95,1.04-2.1-.02-2.09,3.18,0,3.26,3.24.12,6.24-.7,9.44-.89,2.92-.18,5.86-.28,8.77-.55,5.6-.52,11.03-1.74,16.58-2.37,11-1.25,22.44-1.49,33.16-4.55Z"/>
      <path class="cls-5" d="M220.39,133.37c5.63-.33,11.34-.96,16.97-1.49,13.52-1.27,26.66,1.28,40.12.61.06,0,.06-.09,0-.1-13.22-.46-26.07-3.98-39.41-2.73-5.84.55-11.82.74-17.68,1.1-5.84.36-12-.43-17.77.59-1.07.19-1.07,1.96,0,2.15,5.72,1.02,12.03.19,17.77-.15Z"/>
      <path class="cls-5" d="M561.32,167.93c-4.7.35-9.35-.13-14.06.29-6.33.56-12.66,1.17-19,1.66-13.6,1.06-26.92,1.15-40.5.4-6.44-.36-12.56-1.16-19.05-1.06-7.06.11-14.21-.88-21.28-1.2-13.58-.62-27.13-.69-40.72-1.39-3.27-.17-6.46-.59-9.75-.64-3-.05-5.89.47-8.86.41-6.05-.11-12.03,1.05-18.04,1.36-6.56.34-13.46.73-19.96,1.5-6.08.72-12.26,1.91-18.37,2.45-13.89,1.22-27.84,2.74-41.72,4.03-7.04.66-14.11.18-21.17.63-6.52.41-12.99.54-19.5.99-14.81,1.02-29.67,1.12-44.44,2.88-6.67.8-12.94,1.95-19.48,3.53-3.23.78-6.43,1.74-9.63,2.55-3.17.8-6.43,2.29-9.67,2.62-1.44.15-1.48,2.18,0,2.28,5.13.34,10.54-1.05,15.55-2.05,6.84-1.37,13.28-2.38,20.25-2.66,12.67-.53,25.46-2.06,38.15-2.83,13.48-.82,27.07-1.5,40.59-1.5,13.94,0,27.61-2.19,41.43-3.75,6.11-.69,12.09-.96,18.2-1.94,6.81-1.08,13.64-1.33,20.5-1.9,12.04-1.01,24.12-3.01,36.17-3.15,13.34-.16,26.8.41,40.08,1.1,6.89.36,13.99.38,20.88.33,3.34-.02,6.58.63,9.93.53,3.83-.11,7.47-.3,11.27.1,14.17,1.5,28.7,1.52,42.92.24,7.53-.68,15.09-1.6,22.57-2.71,5.58-.82,11.41-1.09,16.79-2.54.31-.08.26-.59-.08-.57Z"/>
      <path class="cls-5" d="M627.88,93.63c10.15-.02,20.21-.5,30.37-.63,9.22-.12,18.69,1.87,27.89.25,4.26-.75,8.42-1.92,12.55-3.02,4.51-1.2,9.33-.44,13.77-1.95.11-.04.06-.19-.05-.17-4.62.71-9.13-.76-13.72-.96-3.74-.17-7.28.5-10.97,1.04-8.55,1.27-17.49-.32-26.03-.82-8.44-.49-16.87.52-25.24.48-9.52-.06-18.99.43-28.49.36-8.42-.06-16.58.72-25.03-.34-7.98-1-16.26-1.01-24.3-1.68-8.42-.7-16.86-1.42-25.28-1.88-6.93-.38-14.53.67-21.46,1.37-7.26.74-14.43-.11-21.7-.28-8.98-.2-17.91-.52-26.93-.53-8.2,0-16.39-.08-24.55-.45-8.74-.4-17.62-.74-26.33-.15-9,.61-17.94-.24-26.96-.08-8.74.16-17.56.51-26.23,1.59-17.23,2.14-34.48,2.24-51.79,3.61-10.01.79-20.1.01-30.09,1.09-9.69,1.04-19.51.3-29.19,1.41-9.32,1.07-18.87.45-28.26,1.04-8.54.54-16.42,3.91-24.91,4.12-.78.02-.77,1.15,0,1.21,7.47.59,14.51-.63,21.9-1.43,4-.43,7.96-.26,11.97-.31,4.35-.05,8.57-.53,12.95-.42,17.24.43,34.39-1.68,51.62-1.64,17.89.04,35.74-1.52,53.53-2.02,9.02-.26,17.85-1.9,26.92-1.79,8.28.1,16.4-.75,24.67.38,4.5.61,9.33.28,13.85-.03,4.8-.32,9.17,0,13.93.17,8.37.3,16.84.39,25.21.39,9.18,0,18.74-.82,27.88,0,7.62.69,15.4.83,23,.94,7.55.12,14.73-1.24,22.22-1.74,8.12-.55,16.34-.1,24.42.99,7.93,1.07,16.01.92,23.98,1.6,8.39.71,16.86,1.32,25.3,1.31,9.84,0,19.69-1,29.56-1.02Z"/>
      <path class="cls-5" d="M397.28,71.72c5.39-.21,10.59-1.44,15.98-1.59,5.94-.17,11.72-.26,17.68-.61,5.26-.31,10.53-.34,15.77-.91,5.76-.63,11.32-2.23,17.02-3.07,9.67-1.43,19.68-.95,29.41-1.58,9.21-.59,18.32-2.4,27.57-2.6,5.76-.12,11.51-.13,17.26-.25,2.29-.05,4.55-.39,6.83-.48,1.31-.06,2.6-.17,3.91-.24.3-.02.54-.03.73-.05.15.01.35.03.62.04,10.43.63,20.81,1.38,31.29,1.67,9.05.25,18.32.82,27.32,1.9,5.23.62,10.44.68,15.68,1.06,5.24.38,10.46,1.2,15.71,1.52,12.07.74,23.84,3.19,35.9,4.43,5.4.55,11.05,1.31,16.49,1.27,2.45-.02,5,.2,7.44-.03,2.79-.26,7.57-2.94,10.16-1.55.31.17.77.23,1.08,0,.21-.16.43-.32.64-.48.94-.71.38-2.05-.79-1.87-.1.02-.2.03-.3.05-.15.02-.27.08-.37.15-1.25.01-3.98-1.45-4.99-1.8-2.48-.86-4.82-1.05-7.37-1.57-4.48-.91-9.27-1.43-13.85-1.89-5.39-.54-10.8-.82-16.2-1.52-5.42-.7-10.71-2.01-16.12-2.64-4.96-.57-9.94-.67-14.92-1.12-5.63-.52-11.24-1.5-16.87-1.87-2.73-.18-5.38.07-8.13-.2-2.4-.24-4.79-.65-7.2-.76-4.73-.22-9.59-1.02-14.27-.92-9.93.21-20.05-1.03-29.96-1.47-4.31-.19-8.73-1.3-12.98-.74-5.41.71-11.03.8-16.49,1.3-5.76.52-11.48-.05-17.24.8-4.34.64-8.55,1.24-12.86,2.08-9.64,1.89-19.54,2.38-29.26,3.7-12.04,1.64-23.95,3.71-36.06,4.85-6.14.58-12.22,1.14-18.29,2.28-6.63,1.26-13.22,3.47-19.99,3.87-.54.03-.55.87,0,.85Z"/>
      <path class="cls-5" d="M724.17,149.73c-8.72-1.48-17.54.25-26.32.24-9.97,0-20.05-.45-30.06-.43-5.34,0-10.69-.03-16.03.06-4.59.08-9.21-.32-13.77-.08-3.6.19-7.37-.49-10.95-.06-2.49.3-5.07.11-7.59.76-.11.03-.11.19,0,.22,5.37,1.44,10.93,1.83,16.43,2.62,9.92,1.42,20.11,1.03,30.14,1.04,10.04.02,20.18-.33,30.19.27,9.15.55,18.59-1.49,27.66-2.4,1.16-.12,1.67-2,.3-2.24Z"/>
      <path class="cls-5" d="M958.49,144.45c.25-1.68-.22-3.3-2.11-4.7-2.19-1.62-5.47-1.96-7.95-.74-8.12-2.64-17.56-2.79-25.59-2.93-12.5-.22-24.92-1.4-37.3-3.25-11.84-1.77-23.86-2.85-35.85-2.8-12.12.06-24.14-.89-36.24-.78-13.06.12-26.13.32-39.12-.79-13.01-1.11-26.12-.44-39.13-1.41-11.72-.88-23.68-2.63-35.45-2.48-13,.17-25.98,1.06-39.01,1.07-15.44.02-30.86-1.03-46.29-.35-6.86.3-13.94.9-20.84.66-6.07-.21-12.15-.47-18.19.41-1.39.2-.88,2.16.31,2.28,5.57.56,11.07,1.58,16.62,2.19,2.92.32,5.89.34,8.83.46,3.19.12,6.38.96,9.54.63,13.04-1.39,26.55.36,39.65.37,13.44.01,26.81-.15,40.23-.42,5.37-.11,10.4-.59,15.75.06,3.31.4,6.71.13,10.05.5,3.75.41,7.57.58,11.29.99,11.95,1.32,24.2,1.76,36.28,1.54,5.4-.1,10.77.97,16.18,1.03,7.01.08,14,.52,21.04.56,6.26.04,12.57-.19,18.83.05,2.98.11,5.82.69,8.81.66,3.02-.03,5.98,0,8.98.3,5.87.6,11.8.03,17.68.36,6.23.36,12.48.81,18.68,1.45,12.95,1.34,25.9,3.95,38.94,4.6,1.4.07,2.8.09,4.21.08,2.09.76,4.37,1.08,6.27,2.25,3.41,2.1,4.45,5.47,1.94,8.63-2.42,3.06-6.9,3.6-9.03,6.84-7.42,1.11-14.89,1.42-22.41,2.29-8.09.94-16.26,2.9-24.24,4.54-2.44.5-4.92,1.1-7.41,1.62-15.21-.18-30.23,3.04-45.41,2.73-15.49-.32-31.04,2.55-46.32,4.79-17.38,2.55-34.93,3.02-52.32,3.83-.72.03-.77.93-.16,1.18,6.23,2.56,12.84,1.94,19.43,1.85,8.34-.12,16.55-.16,24.86-.21,8.36-.05,17.1-1.02,25.29-2.63,3.71-.73,7.48-.95,11.23-1.44,3.9-.51,7.74-.15,11.62-.57,4.28-.46,8.56.13,12.85-.22,3.99-.33,7.96-.59,11.95-.95,8.91-.8,17.76-1.5,26.73-1.5,9.44,0,18.73.75,28.18.09,8.59-.6,17.19-.76,25.75-1.54,7.38-.67,16.79-.56,24.51-2.86,2.45.48,5.2.05,7.38-.76,4.54-1.68,5.6-4.65,6.26-9,.51-3.32,1.77-6.46,2.82-9.65.16-.34.32-.68.5-1.02,1.31-2.53,2.2-4.8,1.02-7.58-.04-.1-.1-.19-.15-.28ZM933.63,150.79c-.02.08-.04.17-.05.25-.04.06-.08.12-.12.18-.31.06-.61.19-.89.38,0-.09,0-.18-.01-.27.4-.09.78-.26,1.08-.54ZM952.36,144.7c-.12.01-.32.02-.59.03-.4.9-.86,1.75-1.35,2.59-.1.08-.19.15-.29.23.1-.29.2-.58.33-.87.37-.72.75-1.44,1.12-2.16.4.04.67.07.81.1,0,.03-.02.05-.02.08ZM912.96,168.75c-6.03.43-12.03.96-18.04,1.37,5.98-.71,12.02-.89,18.01-1.51,0,.05.02.1.04.15Z"/>
      <path class="cls-5" d="M956.01,107.25c-7.34-2.15-15.89-1.3-23.47-1.32-7.72-.03-15.82.24-23.52.96-8.68.81-17.45-.91-26.08-.18-8.42.71-17.25,1.02-25.65,2.31-1.04.16-1.05,1.95,0,2.11,8.1,1.24,16.77,1.63,24.9,1.26,4.31-.2,8.66.73,12.99.73,4.58,0,9.28.26,13.84-.19,7.53-.73,15.13-.64,22.62-1.62,8-1.04,16.54-.11,24.37-2.4.43-.04.65-.43.63-.84.01-.4-.2-.78-.63-.82Z"/>
      <path class="cls-5" d="M964.96,79.25c-1.19-.58-3.52.23-4.81.29-1.8.08-3.55-.23-5.35-.08-9.35.77-19-.09-28.39-.2-18.31-.23-36.69-.99-54.9-.76-1.4.02-1.71,2.07-.33,2.46,3.22.89,6.34,1.57,9.68,2.04,4.45.63,8.98-.04,13.47.19,8.82.44,17.62.22,26.45.11,9.01-.11,18-.24,27.01-.49,3.92-.11,7.82-.51,11.71-.89,1.35-.13,2.97-.41,4.22-.77.51-.14,1.8-.97,2.22-.84.04.01.09-.02.08-.06-.09-.79-.37-.65-1.06-.99Z"/>
      <path class="cls-5" d="M957.36,56.67c1.21.23,2.42.45,3.64.66-1.21-.23-2.42-.45-3.64-.66Z"/>
      <path class="cls-5" d="M963.98,57.82c-1-.15-1.99-.32-2.98-.5.99.19,1.98.38,2.96.59.06.01.08-.08.03-.09Z"/>
      <path class="cls-5" d="M899.65,50.61c5.3,2.18,11.4,1.23,16.97,2.04,4.99.73,10.07.61,15.07,1.02,8.46.68,17.18,1.56,25.66,3.01-8.09-1.53-16.12-3.4-24.3-4.52-5.57-.76-11.26-1.03-16.85-1.62-2.86-.31-5.74-.35-8.62-.6-2.45-.21-5.31-.86-7.75-.72-.84.05-.92,1.1-.19,1.4Z"/>
      <path class="cls-5" d="M741.3,94.8c3.76,1.61,8.2,1.57,12.27,1.74,5.46.23,10.93-.18,16.39.06,11.29.5,22.57.25,33.87.26,9.38,0,18.64-1.11,28.01-1.35,4.83-.12,9.62-.37,14.43-.15,3.89.18,8.18.51,11.95-.67.52-.16.54-.92,0-1.08-17.72-4.99-36.34-1.8-54.39-2.14-11.02-.21-22.05.13-33.05-.51-5.42-.32-10.86-.1-16.28-.19-4.64-.07-8.78-1.14-13.2.75-1.24.53-1.24,2.75,0,3.28Z"/>
      <path class="cls-5" d="M144.23,58.94c7.87-.08,15.53-.63,23.42-.27,6.82.32,13.91-.8,20.63-1.86,2.86-.45,5.57-1.37,8.46-1.83,4.27-.68,8.48-1.48,12.78-1.79,6.16-.43,12.33-1.68,18.44-2.28,12.63-1.24,25.19-3.26,37.79-4.96,2.71-.36,5.53-.6,8.25-1.03,1.33-.13,2.65-.31,3.96-.52,1.77-.11,3.52-.09,5.32-.35,3.46-.49,6.48-.56,9.95-.6,2.75-.03,5.21-.41,7.69-1.66,2.14-1.07.65-4.63-1.63-3.88-3.47,1.15-6.8-.06-10.33-.16-2.67-.07-5.09.79-7.71.93-6.35.34-12.46,1.51-18.83,2.12-5.56.52-11.3,1.2-16.75,2.28-6.71,1.33-13.53,1.6-20.28,2.39-8.02.94-16.15,1.98-24.17,3.42-.2,0-.4.03-.6.03-3.09.14-6.24.52-9.3.99-2.93.46-5.72.09-8.65.41-6.75.74-13.65,1.52-20.43,2.52-2.9.43-5.77.82-8.68,1.18-2.96.37-6.36,1.15-9.33,1.25-2.34.08-2.36,3.67,0,3.65Z"/>
    </g>
    <g>
      <path class="cls-19" d="M248.63,48.61c-4.52.42-9.02.77-13.53,1.35-7.57.96-15.12,1.98-22.62,3.17-7.88,1.25-15.86,1.87-23.73,3.29-9.83,1.78-19.71,4.21-29.61,5.47-.56.07-.6.88,0,.9,8.74.31,18.12-2.08,26.66-3.81,8.71-1.77,17.52-2.66,26.28-3.99,7.16-1.08,14.3-1.96,21.48-3.23,5.02-.88,10.05-1.67,15.08-2.5,3.29-.54,7.08-1.85,10.42-1.79.06,0,.06-.09,0-.1-3.48-.02-6.95.91-10.42,1.23Z"/>
      <path class="cls-19" d="M927.71,124.53s-.06.22-.17.63h-.04c-2.6-.1-5.25,0-7.84-.22-5.28-.47-10.48-.68-15.69-1.72-4.46-.9-8.88-1.87-13.37-2.69-4.17-.75-9.96-.75-13.54-3.14-.17-.11-.26-.4-.07-.55.04-.04.09-.08.13-.11.3-.24.77-.36,1.35-.4h.03c2.16-.15,5.75.77,6.97.94.75.1,1.5.22,2.24.33h.03c4.04.6,7.95,1.12,12.08.88.53-.03,1.07-.07,1.6-.09,0,0,0,0,0,0,8.9.56,18.84,1.31,21.79,1.95,5.22,1.11,4.48,4.19,4.48,4.19Z"/>
      <path class="cls-19" d="M929.57,101.72c-.95-.12-1.9-.23-2.84-.37-2.57-.39-5.14-.91-7.71-1.26-3.3-.45-6.72-.3-9.95-1.16-2.72-.72-5.56-1.96-8.4-2.24-.06,0-.07-.1,0-.1,6.11.34,12.27.78,18.35,1.35,2.42.22,5.18.3,7.93.54,0,0,.02,0,.02,0,1.51.53,2.63,1.52,2.6,3.22Z"/>
      <path class="cls-19" d="M936.4,63.75c-3.5-.39-6.97-1.09-10.38-2.03-2.56-.71-5.77-1.03-7.89-2.68-.07-.05,0-.13.06-.13.88-.1,1.69-.24,2.47-.36,4.55.79,12.96,2.04,14.37,2.61.89.37,1.36.94,1.37,2.59Z"/>
      <path class="cls-19" d="M942.05,25.21c0,1.12-.06,2.45-.21,4,0,.11-.02.22-.03.33-2.52-.32-5.14-.87-6.93-1.12-1.83-.28-4.91-.34-7.63-.81-8.49-1.46-16.71-3.92-25.18-5.47-7.49-1.37-15.06-1.54-22.57-2.49-3.42-.43-7.77-.08-10.99-1.22-1.69-.6-3.6-1.05-5.36-1.72,37.01,2.93,65.11,5.76,77.08,8.06.64.12,1.24.28,1.82.44Z"/>
    </g>
    <g class="cls-17">
      <path class="cls-22" d="M665.68,523.51c-6.03-1.01-12.28-.64-18.36-1.28-6.05-.64-12.21-1.14-18.29-1.61-5.52-.43-10.99-1.63-16.51-2.02-6.2-.44-12.53-.53-18.7-1.26-5.9-.7-11.56.56-17.39.73-14.49.41-29.19.02-43.61,1.95-1.14.15-1.13,2.12,0,2.29,6.87,1.03,13.2.09,20.04.17,3.5.04,6.98.54,10.48.4,3.65-.14,7.12-.68,10.79-.55,5.88.22,11.72-.67,17.61-.18,5.98.5,11.99,1.24,17.98,1.54,11.12.57,22.16,2.78,33.28,3.5,5.92.38,12.04.98,17.97.73,2.82-.12,5.57.23,8.36.11,1.89-.08,5.61-1.12,7.43-.79.09.02.21-.09.14-.18-2-2.67-8.16-3.04-11.23-3.55Z"/>
      <path class="cls-22" d="M515.97,521.33c-7.23-1.38-15.28.03-22.53.75-6.01.6-14.27,1.47-19.83,4.08-.98.46-.38,1.78.5,1.86,4.2.38,9.13-1.3,13.23-2.16,2.3-.48,4.6-.95,6.91-1.4.66-.06,1.3-.12,1.92-.18,3.07-.31,6.15-.31,9.19-.76,3.57-.53,7.09,0,10.62-.52.84-.12.8-1.5,0-1.66Z"/>
      <path class="cls-22" d="M776.23,527.58c-4.86-.72-9.69-1.35-14.62-1.76-6.61-.55-13.67-1.46-20.25-.43-.23.04-.23.44,0,.47,6.33.99,13.14.4,19.55.64,5.1.19,10.23.61,15.31,1.15.05,0,.06-.07.01-.08Z"/>
      <path class="cls-22" d="M346.51,528.2c-3.5.6-6.96,1.45-10.46,2.05-3.72.64-7.65.57-11.29,1.49-.34.09-.36.63,0,.71,6.42,1.36,14.06-1.35,20.31-2.62,7.47-1.52,15.14-2.06,22.54-3.66.05-.01.03-.09-.02-.08-6.98,1.04-14.08.91-21.09,2.11Z"/>
    </g>
  </g>
  <g id="Layer_2-2" data-name="Layer_2">
    <g>
      <g>
        <path class="cls-3" d="M835.86,390.43c-5.18-.46-9.87-3.38-12.55-7.82l-14.55-23.9-1.37,15.49c-.66,7.5-7.53,13.04-15.31,12.35s-13.57-7.35-12.9-14.85l4.74-53.46c.75-8.45,8.46-14.7,17.2-13.93,5.14.46,9.82,3.42,12.54,7.92l14.66,23.83,1.37-15.41c.67-7.55,7.54-13.14,15.32-12.45s13.56,7.4,12.89,14.95l-4.73,53.36c-.75,8.45-8.51,14.7-17.3,13.92Z"/>
        <g>
          <path class="cls-21" d="M837.36,385.92c-.36,0-.72-.02-1.09-.05-3.73-.33-7.11-2.43-9.04-5.62l-21.8-35.8-2.6,29.35c-.42,4.69-4.48,8.23-9.45,8.23-.3,0-.6-.01-.9-.04-2.57-.23-4.88-1.37-6.52-3.21-1.65-1.86-2.44-4.23-2.23-6.67l4.74-53.46c.5-5.6,5.3-9.82,11.17-9.82.35,0,.71.02,1.06.05,3.69.33,7.06,2.47,9.03,5.73l21.92,35.63,2.58-29.17c.42-4.75,4.48-8.34,9.45-8.34.3,0,.6.01.91.04,2.52.22,4.83,1.38,6.48,3.26,1.67,1.9,2.47,4.29,2.26,6.73l-4.73,53.36c-.5,5.59-5.33,9.81-11.25,9.81Z"/>
          <path class="cls-20" d="M799.64,309.82c.32,0,.65.01.98.04,3.56.32,6.56,2.43,8.26,5.25l23.5,38.21,2.85-32.18c.37-4.22,4.03-7.42,8.46-7.42.27,0,.54.01.82.04,4.68.42,8.23,4.42,7.83,8.9l-4.73,53.36c-.46,5.17-4.97,8.9-10.25,8.9-.33,0-.66-.01-1-.04-3.56-.32-6.57-2.33-8.27-5.15l-23.38-38.4-2.87,32.38c-.37,4.22-4.11,7.32-8.46,7.32-.27,0-.54-.01-.81-.04-4.79-.42-8.24-4.32-7.84-8.8l4.74-53.46c.45-5.09,4.89-8.91,10.17-8.91M799.64,307.82c-6.39,0-11.62,4.61-12.17,10.73l-4.74,53.46c-.5,5.63,3.74,10.45,9.66,10.97.33.03.66.04.99.04,5.49,0,9.99-3.93,10.45-9.15l2.33-26.32,20.22,33.21c2.08,3.46,5.75,5.74,9.8,6.1.39.03.79.05,1.18.05,6.44,0,11.7-4.61,12.24-10.72l4.73-53.36c.24-2.72-.65-5.37-2.5-7.48-1.83-2.07-4.36-3.35-7.15-3.6-.33-.03-.67-.04-1-.04-5.49,0-9.98,3.98-10.45,9.25l-2.32,26.17-20.34-33.07c-2.12-3.52-5.78-5.84-9.79-6.19-.38-.03-.77-.05-1.15-.05h0Z"/>
        </g>
      </g>
      <g>
        <path class="cls-3" d="M740.5,388.73c-24.68,0-43.3-17.74-43.3-41.25s18.61-41.46,43.3-41.46,43.2,17.82,43.2,41.46-18.57,41.25-43.2,41.25ZM740.5,334.04c-7.79,0-13.03,5.4-13.03,13.44s5.24,13.34,13.03,13.34,12.93-5.36,12.93-13.34-5.19-13.44-12.93-13.44Z"/>
        <g>
          <path class="cls-2" d="M740.5,384.16c-22.08,0-38.72-15.77-38.72-36.68s16.65-36.88,38.72-36.88,38.62,15.86,38.62,36.88-16.6,36.68-38.62,36.68ZM740.5,329.46c-10.2,0-17.61,7.58-17.61,18.01s7.24,17.91,17.61,17.91,17.5-7.37,17.5-17.91-7.2-18.01-17.5-18.01Z"/>
          <path class="cls-20" d="M740.5,311.59c20.14,0,37.62,14.11,37.62,35.88s-17.48,35.68-37.62,35.68-37.72-14.11-37.72-35.68,17.48-35.88,37.72-35.88M740.5,366.39c10.84,0,18.5-7.87,18.5-18.91s-7.67-19.02-18.5-19.02-18.61,7.97-18.61,19.02,7.77,18.91,18.61,18.91M740.5,309.59c-22.65,0-39.72,16.29-39.72,37.88s17.08,37.68,39.72,37.68c10.57,0,20.41-3.6,27.7-10.15,7.69-6.9,11.92-16.68,11.92-27.53,0-21.6-17.03-37.88-39.62-37.88h0ZM740.5,364.39c-9.78,0-16.61-6.95-16.61-16.91s6.83-17.02,16.61-17.02,16.5,7,16.5,17.02-6.79,16.91-16.5,16.91h0Z"/>
        </g>
      </g>
      <g>
        <path class="cls-3" d="M687.5,388.6c-8.01.64-15.04-5.22-15.66-13.06l-4.33-54.01c-.63-7.84,5.38-14.74,13.39-15.38s15.04,5.22,15.67,13.06l4.33,54.01c.63,7.84-5.38,14.74-13.39,15.38Z"/>
        <g>
          <path class="cls-11" d="M686.32,384.07c-5.16,0-9.52-3.91-9.92-8.89l-4.33-54.01c-.21-2.58.65-5.1,2.41-7.08,1.74-1.97,4.15-3.16,6.78-3.37.28-.02.57-.03.85-.03,5.23,0,9.49,3.82,9.89,8.89l4.33,54.01c.21,2.57-.66,5.09-2.45,7.09-1.73,1.94-4.19,3.16-6.74,3.37-.27.02-.55.03-.82.03Z"/>
          <path class="cls-20" d="M682.11,311.68c4.66,0,8.53,3.43,8.9,7.97l4.33,54.01c.38,4.79-3.48,9-8.27,9.38-.25.02-.49.03-.74.03-4.59,0-8.56-3.43-8.92-7.97l-4.33-54.01c-.38-4.79,3.38-8.99,8.27-9.38.26-.02.51-.03.77-.03M682.11,309.68h0c-.31,0-.62.01-.93.04-6.04.48-10.58,5.66-10.11,11.53l4.33,54.01c.44,5.5,5.24,9.81,10.92,9.81.3,0,.6-.01.9-.04,5.94-.48,10.57-5.76,10.11-11.53l-4.33-54.01c-.45-5.6-5.13-9.81-10.89-9.81h0Z"/>
        </g>
      </g>
      <g>
        <path class="cls-3" d="M649.82,389.92c-5.19-.31-9.97-3.1-12.77-7.46l-15.22-23.48-.94,15.52c-.45,7.51-7.16,13.24-14.96,12.77s-13.77-6.97-13.32-14.48l3.23-53.57c.51-8.47,8.05-14.93,16.8-14.4,5.15.31,9.92,3.14,12.76,7.57l15.32,23.41.93-15.45c.46-7.57,7.17-13.35,14.97-12.88s13.77,7.01,13.31,14.58l-3.23,53.47c-.51,8.47-8.09,14.93-16.9,14.4Z"/>
        <g>
          <path class="cls-7" d="M650.84,385.38c-.25,0-.5,0-.75-.02-3.74-.23-7.18-2.23-9.19-5.37l-22.8-35.17-1.78,29.41c-.29,4.77-4.46,8.5-9.5,8.5-.2,0-.41,0-.62-.02-5.37-.32-9.33-4.56-9.02-9.64l3.23-53.57c.34-5.68,5.27-10.13,11.23-10.13.24,0,.48,0,.73.02,3.69.22,7.13,2.27,9.18,5.47l22.91,35,1.76-29.23c.29-4.82,4.46-8.6,9.5-8.6.21,0,.41,0,.62.02,5.28.32,9.32,4.69,9.02,9.74l-3.23,53.47c-.34,5.68-5.31,10.13-11.31,10.13Z"/>
          <path class="cls-20" d="M611.65,310.37c.22,0,.44,0,.67.02,3.57.22,6.62,2.24,8.4,5.01l24.57,37.53,1.95-32.25c.26-4.31,3.96-7.66,8.5-7.66.19,0,.37,0,.56.02,4.69.28,8.35,4.19,8.08,8.68l-3.23,53.47c-.32,5.29-4.9,9.19-10.32,9.19-.23,0-.45,0-.68-.02-3.57-.22-6.63-2.14-8.41-4.91l-24.45-37.73-1.96,32.45c-.26,4.31-4.05,7.56-8.5,7.56-.18,0-.37,0-.55-.02-4.8-.29-8.36-4.09-8.09-8.58l3.23-53.57c.31-5.2,4.81-9.19,10.23-9.19M611.65,308.37c-6.48,0-11.85,4.86-12.23,11.07l-3.23,53.57c-.34,5.64,4.04,10.34,9.96,10.7.23.01.45.02.68.02,5.57,0,10.18-4.15,10.5-9.44l1.59-26.38,21.15,32.63c2.18,3.4,5.91,5.57,9.97,5.82.27.02.54.02.81.02,6.53,0,11.94-4.86,12.31-11.07l3.23-53.47c.34-5.6-4.13-10.45-9.96-10.8-.23-.01-.46-.02-.68-.02-5.56,0-10.18,4.19-10.5,9.54l-1.58,26.22-21.26-32.48c-2.22-3.46-5.94-5.67-9.96-5.91-.26-.02-.53-.02-.79-.02h0Z"/>
        </g>
      </g>
      <g>
        <path class="cls-3" d="M582.51,386.98c-6.76.52-12.37-2.87-14.65-8.83l-1.36-3.59-13.03.99-.86,3.8c-1.43,6.4-6.29,10.38-13.33,10.92-8.05.61-14.58-4.86-15.18-12.74-.14-1.86.27-4.26.72-5.77l13.28-51.24c2.79-11.13,10.73-14.03,16.9-14.5,8.79-.67,15.58,3.51,19.11,11.77l20.55,48.8c.49,1.18,1.28,3.6,1.42,5.46.61,8.01-5.1,14.29-13.58,14.93Z"/>
        <g>
          <path class="cls-12" d="M538.03,385.75c-5.13,0-8.98-3.52-9.36-8.56-.09-1.21.22-3.09.57-4.21l13.29-51.31c1.71-6.84,6.03-10.57,12.82-11.09.5-.04.99-.06,1.46-.06,6.04,0,10.57,3.13,13.1,9.06l20.54,48.78c.39.94.99,2.86,1.08,4.03.21,2.79-.62,5.23-2.41,7.05-1.69,1.73-4.1,2.75-6.96,2.97-.34.03-.68.04-1.01.04-4.29,0-7.57-2.16-9.01-5.94l-2.56-6.78-19.82,1.51-1.6,7.1c-.99,4.43-4.18,6.97-9.21,7.36-.31.02-.61.03-.9.03ZM553.5,354.51l9.96-.76-6.17-16.25-3.79,17.01Z"/>
          <path class="cls-20" d="M556.81,311.53c6.56,0,10.19,3.8,12.18,8.45l20.53,48.77c.38.89.92,2.7,1,3.72.4,5.2-3.24,8.55-8.44,8.95-.32.02-.63.04-.93.04-3.83,0-6.78-1.88-8.08-5.3l-2.83-7.47-21.3,1.62-1.76,7.82c-.84,3.76-3.42,6.21-8.32,6.58-.28.02-.56.03-.83.03-4.93,0-8.05-3.48-8.36-7.64-.08-1.02.2-2.78.53-3.83l13.31-51.36c1.34-5.33,4.48-9.77,11.93-10.34.47-.04.93-.05,1.38-.05M552.23,355.61l12.64-.96-7.83-20.63-4.81,21.59M556.81,309.53c-.5,0-1.01.02-1.53.06-7.27.55-11.88,4.54-13.71,11.85l-13.29,51.29c-.37,1.2-.7,3.18-.6,4.53.43,5.58,4.69,9.48,10.36,9.48.32,0,.65-.01.98-.04,6.97-.53,9.35-4.72,10.11-8.14l1.44-6.38,18.34-1.4,2.3,6.07c1.6,4.19,5.23,6.59,9.95,6.59.36,0,.72-.01,1.08-.04,6.52-.5,10.74-5.06,10.28-11.09-.1-1.33-.75-3.38-1.15-4.34l-20.53-48.78c-2.71-6.33-7.55-9.68-14.02-9.68h0ZM554.77,353.41l2.77-12.44,4.51,11.88-7.28.56h0Z"/>
        </g>
      </g>
      <g>
        <path class="cls-3" d="M480.16,388.73c-8.04,0-14.57-6.4-14.57-14.27v-53.16c0-7.92,6.54-14.37,14.57-14.37h22.59c8.44,0,15.17,2.2,20.56,6.72,6.78,5.6,10.68,14.32,10.68,23.9s-4.22,18.91-11.59,24.56c-5.2,4.12-11.3,6.06-19.14,6.06h-8.53v6.28c0,7.87-6.54,14.27-14.57,14.27ZM500.51,341.29c1.5,0,2.52-.3,2.97-.58l.12-.07c.62-.37.94-1.4.94-3.07,0-1.12-.16-2.55-.94-3.03l-.09-.06c-.64-.41-1.7-.64-3-.64h-5.77v7.45h5.77Z"/>
        <g>
          <path class="cls-18" d="M480.16,384.16c-5.51,0-10-4.35-10-9.69v-53.16c0-5.4,4.48-9.79,10-9.79h22.59c7.32,0,13.08,1.85,17.61,5.65,5.75,4.75,9.05,12.19,9.05,20.39s-3.57,16.15-9.8,20.93c-4.4,3.49-9.6,5.11-16.35,5.11h-13.11v10.86c0,5.25-4.58,9.69-10,9.69ZM500.51,345.86c2.19,0,4.06-.44,5.4-1.28,2.17-1.28,3.21-3.57,3.21-7.02s-1.04-5.64-3.1-6.92c-1.43-.92-3.27-1.38-5.51-1.38h-10.35v16.61h10.35Z"/>
          <path class="cls-20" d="M502.76,312.51c5.72,0,11.86,1.12,16.97,5.42,5.32,4.4,8.69,11.35,8.69,19.63s-3.68,15.74-9.41,20.14c-4.91,3.88-10.33,4.91-15.74,4.91h-14.11v11.86c0,4.8-4.19,8.69-9,8.69s-9-3.88-9-8.69v-53.16c0-4.91,4.09-8.79,9-8.79h22.59M489.16,346.86h11.35c2.15,0,4.29-.41,5.93-1.43,2.25-1.33,3.68-3.78,3.68-7.87s-1.43-6.44-3.58-7.77c-1.74-1.12-3.89-1.53-6.03-1.53h-11.35v18.61M502.76,310.51h-22.59c-6.06,0-11,4.84-11,10.79v53.16c0,5.89,4.93,10.69,11,10.69s11-4.9,11-10.69v-9.86h12.11c6.99,0,12.38-1.7,16.99-5.34,6.45-4.95,10.16-12.87,10.16-21.71s-3.43-16.22-9.42-21.17c-4.7-3.95-10.68-5.88-18.24-5.88h0ZM491.16,330.26h9.35c2.04,0,3.7.41,4.95,1.21,1.78,1.1,2.66,3.14,2.66,6.09s-.88,5.08-2.7,6.15c-1.21.75-2.93,1.15-4.91,1.15h-9.35v-14.61h0Z"/>
        </g>
      </g>
      <g>
        <path class="cls-3" d="M446.3,391.18c-8.1-.77-13.64-7.32-12.88-15.24l.92-9.71c-3.66,4.98-8.7,7.39-14.25,6.86s-10.15-3.91-12.76-9.52l-.03-.07-.94,9.88c-.75,7.92-7.42,13.32-15.52,12.55s-13.63-7.32-12.88-15.24l4.92-51.9c.89-9.43,8.81-15.86,18.42-14.94,6.2.59,11.22,4.15,13.79,9.76l8.68,19.84,12.29-17.79c3.61-5.09,9.22-7.64,15.42-7.05,9.6.91,16.17,8.71,15.28,18.14l-4.92,51.9c-.75,7.92-7.42,13.32-15.52,12.55Z"/>
        <g>
          <path class="cls-15" d="M447.8,386.67c-.35,0-.71-.02-1.07-.05-2.73-.26-5.11-1.47-6.72-3.41-1.56-1.89-2.29-4.32-2.05-6.85l2.56-27.05-9.83,14.12c-2.43,3.37-5.58,5.14-9.12,5.14-.35,0-.7-.02-1.07-.05-3.99-.38-7.12-2.76-9.04-6.9l-7.11-15.77-2.57,27.08c-.47,4.91-4.44,8.48-9.46,8.48-.35,0-.71-.02-1.07-.05-2.73-.26-5.11-1.47-6.72-3.41-1.56-1.89-2.29-4.32-2.04-6.85l4.92-51.9c.61-6.41,5.56-10.89,12.03-10.89.46,0,.92.02,1.39.07,4.59.44,8.16,2.96,10.06,7.1l11.95,27.3,16.95-24.55c2.36-3.33,5.88-5.16,9.9-5.16.43,0,.87.02,1.31.06,7.12.68,11.81,6.21,11.16,13.15l-4.92,51.9c-.47,4.91-4.44,8.48-9.46,8.48Z"/>
          <path class="cls-20" d="M399.46,309.31c.43,0,.86.02,1.3.06,4.48.42,7.62,2.98,9.24,6.52l12.66,28.93,17.97-26.02c2.04-2.88,5.17-4.73,9.08-4.73.4,0,.8.02,1.22.06,6.82.65,10.83,5.96,10.25,12.06l-4.92,51.9c-.41,4.29-3.78,7.57-8.46,7.57-.32,0-.65-.02-.98-.05-5.19-.49-8.29-4.59-7.86-9.17l2.92-30.84-12.01,17.24c-1.85,2.57-4.54,4.71-8.3,4.71-.32,0-.64-.02-.98-.05-4.27-.41-6.78-3.21-8.23-6.33l-8.65-19.2-2.92,30.84c-.41,4.29-3.78,7.57-8.46,7.57-.32,0-.65-.02-.98-.05-5.19-.49-8.29-4.59-7.86-9.17l4.92-51.9c.54-5.71,4.9-9.98,11.04-9.98M399.46,307.31h0c-7.01,0-12.37,4.85-13.03,11.79l-4.92,51.9c-.27,2.8.54,5.49,2.27,7.58,1.77,2.15,4.4,3.48,7.39,3.77.39.04.78.06,1.17.06,5.54,0,9.94-3.95,10.45-9.38l2.21-23.32,5.55,12.32c2.09,4.5,5.5,7.08,9.87,7.49.39.04.78.06,1.16.06,3.88,0,7.31-1.92,9.92-5.54l7.67-11.02-2.21,23.26c-.56,5.89,3.59,10.77,9.66,11.35.39.04.78.06,1.17.06,5.54,0,9.94-3.95,10.45-9.38l4.92-51.9c.71-7.52-4.36-13.51-12.06-14.24-.47-.04-.95-.07-1.41-.07-4.36,0-8.16,1.98-10.71,5.57l-15.95,23.09-11.22-25.64c-2.03-4.45-5.99-7.25-10.88-7.71-.5-.05-1-.07-1.49-.07h0Z"/>
        </g>
      </g>
      <g>
        <path class="cls-3" d="M339.83,388.73c-24.68,0-43.3-17.74-43.3-41.25s18.61-41.46,43.3-41.46,43.2,17.82,43.2,41.46-18.57,41.25-43.2,41.25ZM339.83,334.04c-7.79,0-13.03,5.4-13.03,13.44s5.24,13.34,13.03,13.34,12.93-5.36,12.93-13.34-5.19-13.44-12.93-13.44Z"/>
        <g>
          <path class="cls-13" d="M339.83,384.16c-22.08,0-38.72-15.77-38.72-36.68s16.65-36.88,38.72-36.88,38.62,15.86,38.62,36.88-16.6,36.68-38.62,36.68ZM339.83,329.46c-10.2,0-17.61,7.58-17.61,18.01s7.24,17.91,17.61,17.91,17.5-7.37,17.5-17.91-7.2-18.01-17.5-18.01Z"/>
          <path class="cls-20" d="M339.83,311.59c20.14,0,37.62,14.11,37.62,35.88s-17.48,35.68-37.62,35.68-37.72-14.11-37.72-35.68,17.48-35.88,37.72-35.88M339.83,366.39c10.84,0,18.5-7.87,18.5-18.91s-7.67-19.02-18.5-19.02-18.61,7.97-18.61,19.02,7.77,18.91,18.61,18.91M339.83,309.59c-22.65,0-39.72,16.29-39.72,37.88s17.08,37.68,39.72,37.68c10.57,0,20.41-3.6,27.7-10.15,7.69-6.9,11.92-16.68,11.92-27.53,0-21.6-17.03-37.88-39.62-37.88h0ZM339.83,364.39c-9.78,0-16.61-6.95-16.61-16.91s6.83-17.02,16.61-17.02,16.5,7,16.5,17.02-6.79,16.91-16.5,16.91h0Z"/>
        </g>
      </g>
      <g>
        <path class="cls-3" d="M280.3,387.76c-25.3,2.64-44.73-12.47-47.27-36.75-1.18-11.34,2.36-22.31,9.98-30.9,7.33-8.26,17.59-13.46,28.9-14.64,6.66-.7,11.81-.47,17.2.77,6.66,1.53,11.01,6.05,11.64,12.11.81,7.79-4.65,14.52-12.43,15.33-2.25.24-4.09-.15-5.88-.52-.75-.15-1.52-.32-2.37-.44l-.14-.02c-1.56-.26-3.29-.27-5.59-.03-7.39.77-12.34,7.32-11.51,15.23s6.78,13.32,14.41,12.52c2.07-.22,4.04-.67,5.83-1.35,1.02-.37,1.89-.74,2.74-1.09,1.99-.84,3.86-1.63,6.09-1.86,7.79-.81,14.52,4.65,15.33,12.43.61,5.8-2.82,11.28-8.94,14.31-5.32,2.54-11.52,4.23-17.99,4.9Z"/>
        <g>
          <path class="cls-16" d="M274.59,383.49c-20.39,0-34.92-12.93-37.01-32.95-1.05-10.05,2.09-19.77,8.85-27.39,6.57-7.4,15.78-12.06,25.96-13.12,2.33-.24,4.42-.36,6.38-.36,3.27,0,6.23.33,9.33,1.04,4.8,1.1,7.68,3.99,8.11,8.12.27,2.6-.46,5.08-2.05,7-1.56,1.87-3.8,3.05-6.3,3.31-.31.03-.61.05-.91.05-1.19,0-2.29-.23-3.56-.49-.82-.17-1.67-.35-2.65-.49-1.1-.19-2.21-.27-3.42-.27-1.05,0-2.17.06-3.44.2-9.98,1.04-16.68,9.75-15.59,20.25,1.03,9.84,8.19,16.7,17.41,16.7.67,0,1.35-.04,2.02-.11,2.46-.26,4.81-.8,6.98-1.62,1.07-.39,2-.78,2.89-1.16,1.74-.73,3.24-1.37,4.79-1.53.34-.04.68-.05,1.01-.05,4.88,0,8.78,3.54,9.29,8.41.41,3.9-1.99,7.54-6.42,9.73-4.8,2.29-10.48,3.83-16.43,4.45-1.76.18-3.52.28-5.23.28Z"/>
          <path class="cls-20" d="M278.77,310.66c3.29,0,6.18.34,9.11,1.01,4,.92,6.92,3.29,7.34,7.25.51,4.88-2.89,8.73-7.47,9.21-.27.03-.54.04-.8.04-1.81,0-3.53-.61-6.08-.97-1.06-.18-2.21-.28-3.56-.28-1.05,0-2.21.06-3.54.2-10.07,1.05-17.67,9.96-16.48,21.35,1.1,10.53,8.72,17.6,18.41,17.6.7,0,1.41-.04,2.13-.11,2.95-.31,5.35-.97,7.23-1.68,3.17-1.15,5.3-2.4,7.43-2.63.31-.03.61-.05.91-.05,4.2,0,7.83,3.05,8.3,7.51.41,3.97-2.45,7.04-5.87,8.73-4.41,2.1-9.89,3.71-16.09,4.35-1.74.18-3.46.27-5.13.27-19.27,0-33.9-11.85-36.01-32.05-2.14-20.54,13.78-37.31,33.92-39.41,2.29-.24,4.35-.36,6.28-.36M278.77,308.66h0c-2,0-4.12.12-6.48.37-10.42,1.09-19.87,5.87-26.6,13.45-6.94,7.83-10.18,17.83-9.1,28.16,2.15,20.56,17.06,33.85,38,33.85,1.75,0,3.54-.1,5.34-.28,6.07-.63,11.86-2.2,16.75-4.54,4.84-2.4,7.45-6.41,7-10.75-.56-5.39-4.89-9.31-10.29-9.31-.37,0-.75.02-1.12.06-1.7.18-3.26.84-5.07,1.6-.88.37-1.8.76-2.84,1.14-2.11.8-4.37,1.32-6.75,1.57-.64.07-1.29.1-1.92.1-8.83,0-15.43-6.35-16.42-15.81-.51-4.89.77-9.54,3.59-13.1,2.74-3.44,6.68-5.59,11.1-6.06,1.23-.13,2.32-.19,3.33-.19,1.15,0,2.21.08,3.23.26h.03s.03,0,.03,0c.96.14,1.79.31,2.59.47,1.27.26,2.47.51,3.77.51.34,0,.68-.02,1.01-.05,5.79-.6,9.85-5.61,9.25-11.4-.47-4.53-3.71-7.81-8.88-8.99-3.17-.72-6.21-1.06-9.55-1.06h0Z"/>
        </g>
      </g>
    </g>
    <image width="7000" height="2067" transform="translate(0 56.79) scale(.16)" xlink:href="outsmartedlogo.png"/>
  </g>
</svg>