<?xml version="1.0" encoding="UTF-8"?>
<svg id="Layer_1" xmlns="http://www.w3.org/2000/svg" viewBox="0 0 116.3 111.19">
  <defs>
    <style>
      .cls-1 {
        fill: #b3b3b3;
        stroke: #fff;
        stroke-miterlimit: 10;
        stroke-width: 6px;
      }
    </style>
  </defs>
  <path class="cls-1" d="M60.8,4.64l13.9,27.75c1.05,2.1,3.06,3.56,5.39,3.91l30.69,4.65c2.41.37,3.38,3.33,1.64,5.04l-22.09,21.79c-1.67,1.65-2.44,4.01-2.06,6.33l5.06,30.62c.4,2.41-2.12,4.24-4.29,3.12l-27.56-14.28c-2.09-1.08-4.57-1.08-6.66,0l-27.56,14.28c-2.17,1.12-4.69-.71-4.29-3.12l5.06-30.62c.38-2.32-.38-4.68-2.06-6.33L3.89,45.99c-1.74-1.71-.78-4.68,1.64-5.04l30.69-4.65c2.32-.35,4.33-1.81,5.39-3.91l13.9-27.75c1.09-2.18,4.21-2.18,5.3,0Z"/>
</svg>