<?xml version="1.0" encoding="UTF-8"?>
<svg xmlns="http://www.w3.org/2000/svg" viewBox="0 0 1310.15 684.86">
  <defs>
    <style>
      .cls-1 {
        letter-spacing: -.04em;
      }

      .cls-2, .cls-3, .cls-4 {
        fill: #fff;
      }

      .cls-3, .cls-5, .cls-6, .cls-7 {
        stroke-miterlimit: 10;
      }

      .cls-3, .cls-5, .cls-7 {
        stroke: #000;
      }

      .cls-5 {
        stroke-width: 2px;
      }

      .cls-5, .cls-7 {
        fill: #4d4d4d;
      }

      .cls-8, .cls-9 {
        fill: #c1272d;
      }

      .cls-9 {
        font-size: 290px;
      }

      .cls-9, .cls-4 {
        font-family: BovineRoundMVB-Regular, 'Bovine Round MVB';
      }

      .cls-10 {
        fill: #1a1a1a;
      }

      .cls-4 {
        font-size: 230px;
      }

      .cls-6 {
        fill: none;
        stroke: #4d4d4d;
        stroke-linecap: round;
        stroke-width: 9px;
      }

      .cls-11 {
        letter-spacing: .02em;
      }

      .cls-12 {
        fill: #ccc;
      }
    </style>
  </defs>
  <g id="Layer_2">
    <g id="Layer_1_copy">
      <path class="cls-2" d="M748.14,618.97c-26.89,0-48.56-7.33-64.42-21.79-14.86-13.55-23.87-32.59-26.78-56.59l-14.44-119.19c-.8-6.64.46-12.14,3.77-16.36,3.31-4.22,8.35-6.76,14.99-7.57l43.18-5.23c1.28-.15,2.53-.23,3.72-.23,11.38,0,18.75,6.92,20.21,18.99l12.52,103.35c2.87,23.71,10.34,23.71,14.8,23.71.9,0,1.88-.06,2.9-.19,8.01-.97,14.41-3.68,11.58-27.07l-12.52-103.35c-.8-6.64.46-12.14,3.77-16.36,3.31-4.22,8.35-6.76,14.99-7.57l43.18-5.23c1.28-.15,2.53-.23,3.72-.23,11.38,0,18.74,6.92,20.21,18.99l14.44,119.19c3.22,26.54-2.62,49.75-16.87,67.1-15.46,18.82-39.96,30.38-72.82,34.36-6.96.84-13.73,1.27-20.13,1.27ZM903.62,596.41c-11.38,0-18.75-6.92-20.21-18.99l-22.11-182.52c-.8-6.64.46-12.14,3.77-16.36s8.35-6.76,14.99-7.57l57.86-7.01c5.41-.66,10.78-.99,15.96-.99,66.03,0,96.38,52.61,100.66,87.97,4.68,38.65-12.14,64.73-27.08,79.79-14.95,15.08-35.43,26.52-55.85,31.4l.55,4.53c.8,6.64-.46,12.14-3.77,16.36-3.31,4.22-8.35,6.76-14.99,7.57l-46.06,5.58c-1.28.15-2.53.23-3.72.23ZM960.03,488.19c2.59-1.33,5.04-3.18,7.08-5.41,2.34-2.57,6.12-7.95,5.25-15.16-2.01-16.58-11.1-21.28-17.54-22.48l5.22,43.06ZM1113.14,575.64c-19.52,0-36.64-15.14-38.98-34.47-1.91-15.73,6.32-30.84,19.37-38.56-9.6-.34-16.58-6.23-19.23-16.29l-28.08-111.18c-1.84-7.08-1.14-13.12,2.1-17.88,3.29-4.83,8.76-7.73,16.29-8.65l50.67-6.14c1.39-.17,2.76-.25,4.05-.25,7.59,0,12.11,2.97,14.57,5.47,3.79,3.84,5.66,9.3,5.57,16.21l-.44,114.49c-.18,10.68-5.56,17.96-14.94,20.54,14.56,4.43,26,17.27,27.88,32.81,1.24,10.23-1.64,20.44-8.1,28.74-6.5,8.35-15.77,13.63-26.09,14.88-1.53.19-3.09.28-4.63.28Z"/>
      <path class="cls-8" d="M767.43,610.75c-64.77,7.85-97.71-22.92-103.54-71l-14.44-119.19c-1.15-9.5,3.15-14.99,12.65-16.14l43.18-5.23c9.5-1.15,14.99,3.15,16.14,12.65l12.52,103.35c2.65,21.88,9.66,31.55,25.5,29.63s20.34-12.98,17.69-34.86l-12.52-103.35c-1.15-9.5,3.15-14.99,12.65-16.14l43.18-5.23c9.5-1.15,14.99,3.15,16.14,12.65l14.44,119.19c5.79,47.79-18.81,85.82-83.59,93.67ZM963.89,556.57l1.33,10.94c1.15,9.5-3.15,14.99-12.65,16.14l-46.06,5.58c-9.5,1.15-14.99-3.15-16.14-12.65l-22.11-182.52c-1.15-9.5,3.15-14.99,12.65-16.14l57.86-7.01c71.11-8.61,104.36,44.03,108.83,80.88,7.74,63.91-46.78,98.56-83.71,104.78ZM946.9,437.98l7.18,59.31c12.96-1.57,27.18-14.39,25.22-30.51-2.86-23.61-18.88-30.43-32.41-28.79ZM1132.02,478.36c-.14,8.49-4.51,13.4-12.86,14.41l-22.17,2.69c-8.35,1.01-13.77-2.71-15.93-10.92l-28.06-111.11c-2.73-10.48,1.79-16.58,12.44-17.87l50.67-6.14c10.65-1.29,16.5,3.55,16.35,14.38l-.44,114.56ZM1116.93,568.41c-17.56,2.13-33.73-10.81-35.83-28.08s10.52-33.7,28.08-35.83c17.56-2.13,33.73,10.81,35.83,28.08,2.09,17.27-10.52,33.7-28.08,35.83Z"/>
      <g>
        <path class="cls-2" d="M488.7,535.98c-2.68,0-5.29-.94-7.35-2.66-4.88-4.06-5.54-11.32-1.49-16.2,21.58-25.95,38.15-55.17,49.25-86.87,1.61-4.61,5.97-7.7,10.85-7.7,1.3,0,2.58.22,3.81.65,5.98,2.09,9.14,8.67,7.05,14.65-12.01,34.3-29.93,65.92-53.27,93.98-2.19,2.63-5.42,4.15-8.84,4.15Z"/>
        <path class="cls-2" d="M68.25,130.1c-3.27,0-6.4-1.4-8.58-3.84-4.23-4.73-3.81-12.02.92-16.24,32.65-29.15,70.27-50.52,111.84-63.5,1.11-.35,2.27-.52,3.43-.52,5.06,0,9.47,3.24,10.98,8.07,1.89,6.05-1.5,12.52-7.55,14.41-38.42,12-73.2,31.75-103.38,58.71-2.11,1.88-4.83,2.92-7.66,2.92Z"/>
        <path class="cls-2" d="M263.34,641.72c-41.72,0-82.15-8.29-120.17-24.63-36.72-15.79-69.56-38.34-97.61-67.05-2.15-2.2-3.31-5.1-3.27-8.17s1.26-5.95,3.46-8.09c2.16-2.11,5.02-3.28,8.04-3.28s6.04,1.23,8.22,3.46c53.42,54.66,124.92,84.76,201.33,84.76,37.52,0,73.94-7.25,108.25-21.56,1.41-.59,2.9-.89,4.42-.89,4.66,0,8.82,2.78,10.62,7.08,1.18,2.83,1.19,5.96.02,8.8-1.17,2.84-3.37,5.06-6.21,6.24-37.13,15.48-76.53,23.34-117.1,23.34Z"/>
      </g>
      <path class="cls-2" d="M263.34,600.56c-70.34,0-136.47-27.39-186.21-77.13C27.39,473.69,0,407.56,0,337.22c0-65.94,24.49-129.04,68.97-177.66,42.74-46.73,100.37-76.33,162.85-83.79v-14.29h-12.83c-10.48,0-19-8.52-19-19v-23.48c0-10.48,8.52-19,19-19h88.7c10.48,0,19,8.52,19,19v23.48c0,10.48-8.52,19-19,19h-14.39v14.11c29,3.28,56.93,11.26,83.19,23.78l2.64-4.58-2.4-1.38c-2.98-1.72-5.12-4.51-6.01-7.84-.89-3.34-.44-6.81,1.28-9.8l5.78-10.02c2.3-3.98,6.59-6.45,11.2-6.45,2.26,0,4.48.6,6.44,1.73l37.85,21.85c6.17,3.56,8.29,11.47,4.73,17.64l-5.78,10.02c-.84,1.46-1.96,2.72-3.26,3.73L1134.26,28.83c6.25-.76,12.6-1.14,18.87-1.14,38,0,74.8,13.95,103.62,39.28,29.07,25.54,47.63,60.65,52.25,98.84,5.02,41.47-6.5,82.53-32.44,115.63-25.94,33.1-63.07,54.09-104.54,59.11l-658.75,79.8c-16.86,50.63-49.6,95.97-92.59,128.05-45.72,34.13-100.14,52.17-157.35,52.17ZM409.72,116.59l6.04-.73c-.4-.18-.8-.38-1.18-.6l-3.07-1.77-1.79,3.1Z"/>
    </g>
  </g>
  <g id="Layer_1">
    <g>
      <text class="cls-9" transform="translate(658.91 619.22) rotate(-6.91)"><tspan x="0" y="0">U</tspan><tspan class="cls-11" x="217.5" y="0">P</tspan><tspan x="417.6" y="0">!</tspan></text>
      <rect class="cls-8" x="252.22" y="80" width="1053.66" height="300" rx="150" ry="150" transform="translate(-22.01 95.35) rotate(-6.91)"/>
      <text class="cls-4" transform="translate(539.96 345.6) rotate(-6.91)"><tspan x="0" y="0">TIME</tspan><tspan class="cls-1" x="538.66" y="0">’</tspan><tspan x="575.92" y="0">S</tspan></text>
    </g>
    <g id="Stopwatch">
      <path class="cls-6" d="M68.25,118.6c30.74-27.45,67.3-48.51,107.61-61.1"/>
      <path class="cls-6" d="M376.02,607.77c-34.69,14.46-72.75,22.45-112.68,22.45-82.12,0-156.36-33.79-209.56-88.22"/>
      <path class="cls-6" d="M539.96,434.05c-11.65,33.3-29.15,63.85-51.26,90.43"/>
      <path class="cls-7" d="M399.62,120.09l9.33-16.16,9.13,5.27c2.82,1.63,6.45.65,8.08-2.16l5.78-10.02c1.63-2.82.65-6.45-2.16-8.08l-37.85-21.85c-2.82-1.63-6.45-.65-8.08,2.16l-5.78,10.02c-1.63,2.82-.65,6.45,2.16,8.08l8.46,4.88-9.42,16.31c-28.36-14.41-59.76-23.68-92.98-26.63v-27.44h21.39c6.6,0,12-5.4,12-12v-23.48c0-6.6-5.4-12-12-12h-88.7c-6.6,0-12,5.4-12,12v23.48c0,6.6,5.4,12,12,12h19.83v27.58C108.75,94.4,7,203.92,7,337.22c0,141.57,114.77,256.34,256.34,256.34s256.34-114.77,256.34-256.34c0-91.49-47.94-171.77-120.06-217.13Z"/>
      <circle class="cls-3" cx="263.34" cy="337.22" r="225.35"/>
      <circle class="cls-5" cx="263.34" cy="337.22" r="112.68"/>
      <g id="Timer_Marks">
        <g>
          <rect class="cls-8" x="257" y="153.91" width="12.68" height="35.21"/>
          <rect class="cls-12" x="257" y="485.31" width="12.68" height="35.21"/>
        </g>
        <g>
          <rect class="cls-12" x="228.23" y="156.43" width="12.68" height="35.21" transform="translate(-26.66 43.38) rotate(-10)"/>
          <rect class="cls-12" x="285.77" y="482.8" width="12.68" height="35.21" transform="translate(-82.46 58.33) rotate(-10)"/>
        </g>
        <g>
          <rect class="cls-12" x="200.33" y="163.9" width="12.68" height="35.21" transform="translate(-49.62 81.63) rotate(-20)"/>
          <rect class="cls-12" x="313.67" y="475.32" width="12.68" height="35.21" transform="translate(-149.29 139.18) rotate(-20)"/>
        </g>
        <g>
          <rect class="cls-12" x="174.15" y="176.11" width="12.68" height="35.21" transform="translate(-72.68 116.2) rotate(-30)"/>
          <rect class="cls-12" x="339.85" y="463.11" width="12.68" height="35.21" transform="translate(-193.98 237.5) rotate(-30)"/>
        </g>
        <g>
          <rect class="cls-12" x="150.49" y="192.68" width="12.68" height="35.21" transform="translate(-98.48 150) rotate(-40)"/>
          <rect class="cls-12" x="363.51" y="446.55" width="12.68" height="35.21" transform="translate(-211.82 346.33) rotate(-40)"/>
        </g>
        <g>
          <rect class="cls-12" x="130.07" y="213.1" width="12.68" height="35.21" transform="translate(-128.01 186.9) rotate(-50)"/>
          <rect class="cls-12" x="383.93" y="426.12" width="12.68" height="35.21" transform="translate(-200.51 457.47) rotate(-50)"/>
        </g>
        <g>
          <rect class="cls-12" x="113.5" y="236.76" width="12.68" height="35.21" transform="translate(-160.37 230.97) rotate(-60)"/>
          <rect class="cls-12" x="400.5" y="402.46" width="12.68" height="35.21" transform="translate(-160.37 562.37) rotate(-60)"/>
        </g>
        <g>
          <rect class="cls-12" x="101.29" y="262.94" width="12.68" height="35.21" transform="translate(-192.81 285.73) rotate(-70)"/>
          <rect class="cls-12" x="412.71" y="376.29" width="12.68" height="35.21" transform="translate(-94.41 652.95) rotate(-70)"/>
        </g>
        <g>
          <rect class="cls-12" x="93.82" y="290.84" width="12.68" height="35.21" transform="translate(-221 353.52) rotate(-80)"/>
          <rect class="cls-12" x="420.18" y="348.39" width="12.68" height="35.21" transform="translate(-7.97 722.48) rotate(-80)"/>
        </g>
        <g>
          <rect class="cls-12" x="91.3" y="319.61" width="12.68" height="35.21" transform="translate(-239.58 434.86) rotate(-90)"/>
          <rect class="cls-12" x="422.7" y="319.61" width="12.68" height="35.21" transform="translate(91.82 766.26) rotate(-90)"/>
        </g>
        <g>
          <rect class="cls-12" x="93.82" y="348.39" width="12.68" height="35.21" transform="translate(-242.89 528.18) rotate(-100)"/>
          <rect class="cls-12" x="420.18" y="290.84" width="12.68" height="35.21" transform="translate(196.83 782.05) rotate(-100)"/>
        </g>
        <g>
          <rect class="cls-12" x="101.29" y="376.29" width="12.68" height="35.21" transform="translate(-225.7 629.75) rotate(-110)"/>
          <rect class="cls-12" x="412.71" y="262.94" width="12.68" height="35.21" transform="translate(298.74 770.27) rotate(-110)"/>
        </g>
        <g>
          <rect class="cls-12" x="113.5" y="402.46" width="12.68" height="35.21" transform="translate(-184.04 733.89) rotate(-120)"/>
          <rect class="cls-12" x="400.5" y="236.76" width="12.68" height="35.21" transform="translate(389.97 733.89) rotate(-120)"/>
        </g>
        <g>
          <rect class="cls-12" x="130.07" y="426.12" width="12.68" height="35.21" transform="translate(-115.83 833.44) rotate(-130)"/>
          <rect class="cls-12" x="383.93" y="213.1" width="12.68" height="35.21" transform="translate(464.4 677.97) rotate(-130)"/>
        </g>
        <g>
          <rect class="cls-12" x="150.49" y="446.55" width="12.68" height="35.21" transform="translate(-21.39 920.52) rotate(-140)"/>
          <rect class="cls-8" x="363.51" y="192.68" width="12.68" height="35.21" transform="translate(518 609.11) rotate(-140)"/>
        </g>
        <g>
          <rect class="cls-12" x="174.15" y="463.11" width="12.68" height="35.21" transform="translate(96.43 987.28) rotate(-150)"/>
          <rect class="cls-8" x="339.85" y="176.11" width="12.68" height="35.21" transform="translate(549.14 534.58) rotate(-150)"/>
        </g>
        <g>
          <rect class="cls-12" x="200.33" y="475.32" width="12.68" height="35.21" transform="translate(232.28 1026.81) rotate(-160)"/>
          <rect class="cls-8" x="313.67" y="163.9" width="12.68" height="35.21" transform="translate(558.64 461.52) rotate(-160)"/>
        </g>
        <g>
          <rect class="cls-12" x="228.23" y="482.8" width="12.68" height="35.21" transform="translate(378.67 1033.93) rotate(-170)"/>
          <rect class="cls-8" x="285.77" y="156.43" width="12.68" height="35.21" transform="translate(549.56 396.15) rotate(-170)"/>
        </g>
      </g>
      <path class="cls-8" d="M277.91,333.64l-14.57-116.59-14.57,116.59c-.28,1.15-.45,2.34-.45,3.58,0,8.29,6.72,15.02,15.02,15.02s15.02-6.72,15.02-15.02c0-1.24-.17-2.43-.45-3.58Z"/>
      <circle class="cls-10" cx="263.34" cy="337.22" r="8.38"/>
    </g>
  </g>
</svg>